M48
; DRILL file KiCad 10.0.4 date 2026-07-17T20:56:49
; FORMAT={-:-/ absolute / metric / decimal}
; #@! TF.CreationDate,2026-07-17T20:56:49+12:00
; #@! TF.GenerationSoftware,Kicad,Pcbnew,10.0.4
; #@! TF.FileFunction,NonPlated,1,2,NPTH
FMAT,2
METRIC
; #@! TA.AperFunction,NonPlated,NPTH,ComponentDrill
T1C1.700
; #@! TA.AperFunction,NonPlated,NPTH,ComponentDrill
T2C3.200
; #@! TA.AperFunction,NonPlated,NPTH,ComponentDrill
T3C4.000
%
G90
G05
T1
X142.42Y-97.5
X142.42Y-116.5
X142.42Y-135.5
X152.58Y-97.5
X152.58Y-116.5
X152.58Y-135.5
X161.42Y-97.5
X161.42Y-116.5
X161.42Y-135.5
X171.58Y-97.5
X171.58Y-116.5
X171.58Y-135.5
X180.42Y-97.5
X180.42Y-116.5
X180.42Y-135.5
X190.58Y-97.5
X190.58Y-116.5
X190.58Y-135.5
T2
X136.5Y-70.0
X136.5Y-146.0
X196.5Y-70.0
X196.5Y-146.0
T3
X147.5Y-97.5
X147.5Y-116.5
X147.5Y-135.5
X166.5Y-97.5
X166.5Y-116.5
X166.5Y-135.5
X185.5Y-97.5
X185.5Y-116.5
X185.5Y-135.5
M30
