M48
; DRILL file KiCad 10.0.4 date 2026-07-17T20:56:49
; FORMAT={-:-/ absolute / metric / decimal}
; #@! TF.CreationDate,2026-07-17T20:56:49+12:00
; #@! TF.GenerationSoftware,Kicad,Pcbnew,10.0.4
; #@! TF.FileFunction,Plated,1,2,PTH
FMAT,2
METRIC
; #@! TA.AperFunction,Plated,PTH,ViaDrill
T1C0.300
; #@! TA.AperFunction,Plated,PTH,ComponentDrill
T2C0.800
; #@! TA.AperFunction,Plated,PTH,ComponentDrill
T3C1.000
; #@! TA.AperFunction,Plated,PTH,ComponentDrill
T4C1.500
%
G90
G05
T1
X137.283Y-130.285
X147.15Y-79.77
X150.65Y-83.73
X150.978Y-94.96
X152.012Y-70.987
X152.246Y-107.302
X157.873Y-93.29
X158.802Y-131.245
X161.5Y-81.198
X162.69Y-126.302
X169.979Y-108.311
X171.675Y-82.46
X175.125Y-132.431
X175.125Y-138.65
X176.875Y-94.184
X177.802Y-122.5
X186.1Y-70.306
X186.977Y-139.659
X192.689Y-122.5
X193.625Y-138.65
T2
X143.69Y-106.0
X143.69Y-125.0
X143.69Y-144.0
X151.31Y-106.0
X151.31Y-125.0
X151.31Y-144.0
X162.69Y-106.0
X162.69Y-125.0
X162.69Y-144.0
X170.31Y-106.0
X170.31Y-125.0
X170.31Y-144.0
X181.69Y-106.0
X181.69Y-125.0
X181.69Y-144.0
X189.31Y-106.0
X189.31Y-125.0
X189.31Y-144.0
T3
X178.25Y-78.0
X178.25Y-80.5
X178.25Y-83.0
X192.75Y-78.0
X192.75Y-83.0
T4
X143.69Y-94.96
X143.69Y-113.96
X143.69Y-132.96
X150.04Y-92.42
X150.04Y-111.42
X150.04Y-130.42
X162.69Y-94.96
X162.69Y-113.96
X162.69Y-132.96
X169.04Y-92.42
X169.04Y-111.42
X169.04Y-130.42
X181.69Y-94.96
X181.69Y-113.96
X181.69Y-132.96
X188.04Y-92.42
X188.04Y-111.42
X188.04Y-130.42
T4
G00X185.1Y-74.9
M15
G01X186.4Y-74.9
M16
G05
G00X185.1Y-86.1
M15
G01X186.4Y-86.1
M16
G05
M30
