%TF.GenerationSoftware,KiCad,Pcbnew,10.0.4*%
%TF.CreationDate,2026-07-17T20:56:52+12:00*%
%TF.ProjectId,LiPad,4c695061-642e-46b6-9963-61645f706362,2*%
%TF.SameCoordinates,Original*%
%TF.FileFunction,Copper,L2,Bot*%
%TF.FilePolarity,Positive*%
%FSLAX46Y46*%
G04 Gerber Fmt 4.6, Leading zero omitted, Abs format (unit mm)*
G04 Created by KiCad (PCBNEW 10.0.4) date 2026-07-17 20:56:52*
%MOMM*%
%LPD*%
G01*
G04 APERTURE LIST*
%TA.AperFunction,ComponentPad*%
%ADD10R,1.600000X1.600000*%
%TD*%
%TA.AperFunction,ComponentPad*%
%ADD11O,1.600000X1.600000*%
%TD*%
%TA.AperFunction,ComponentPad*%
%ADD12C,2.200000*%
%TD*%
%TA.AperFunction,ComponentPad*%
%ADD13R,2.000000X2.000000*%
%TD*%
%TA.AperFunction,ComponentPad*%
%ADD14C,2.000000*%
%TD*%
%TA.AperFunction,ComponentPad*%
%ADD15R,3.200000X2.000000*%
%TD*%
%TA.AperFunction,ViaPad*%
%ADD16C,0.600000*%
%TD*%
%TA.AperFunction,Conductor*%
%ADD17C,0.600000*%
%TD*%
G04 APERTURE END LIST*
D10*
%TO.P,D9,1,K_1*%
%TO.N,Row 2*%
X181690000Y-144000000D03*
D11*
%TO.P,D9,2,A_2*%
%TO.N,Net-(D9-A)*%
X189310000Y-144000000D03*
%TD*%
D10*
%TO.P,D3,1,K_1*%
%TO.N,Row 0*%
X181690000Y-106000000D03*
D11*
%TO.P,D3,2,A_2*%
%TO.N,Net-(D3-A)*%
X189310000Y-106000000D03*
%TD*%
D12*
%TO.P,SW5,1,1_1*%
%TO.N,Column 1*%
X169040000Y-111420000D03*
%TO.P,SW5,2,2_2*%
%TO.N,Net-(D5-A)*%
X162690000Y-113960000D03*
%TD*%
%TO.P,SW8,1,1_1*%
%TO.N,Column 1*%
X188040000Y-111420000D03*
%TO.P,SW8,2,2_2*%
%TO.N,Net-(D8-A)*%
X181690000Y-113960000D03*
%TD*%
D10*
%TO.P,D6,1,K_1*%
%TO.N,Row 1*%
X181690000Y-125000000D03*
D11*
%TO.P,D6,2,A_2*%
%TO.N,Net-(D6-A)*%
X189310000Y-125000000D03*
%TD*%
D12*
%TO.P,SW6,1,1_1*%
%TO.N,Column 2*%
X169040000Y-130420000D03*
%TO.P,SW6,2,2_2*%
%TO.N,Net-(D6-A)*%
X162690000Y-132960000D03*
%TD*%
%TO.P,SW9,1,1_1*%
%TO.N,Column 2*%
X188040000Y-130420000D03*
%TO.P,SW9,2,2_2*%
%TO.N,Net-(D9-A)*%
X181690000Y-132960000D03*
%TD*%
D10*
%TO.P,D4,1,K_1*%
%TO.N,Row 1*%
X143690000Y-125000000D03*
D11*
%TO.P,D4,2,A_2*%
%TO.N,Net-(D4-A)*%
X151310000Y-125000000D03*
%TD*%
D10*
%TO.P,D7,1,K_1*%
%TO.N,Row 2*%
X143690000Y-144000000D03*
D11*
%TO.P,D7,2,A_2*%
%TO.N,Net-(D7-A)*%
X151310000Y-144000000D03*
%TD*%
D12*
%TO.P,SW2,1,1_1*%
%TO.N,Column 1*%
X150040000Y-111420000D03*
%TO.P,SW2,2,2_2*%
%TO.N,Net-(D2-A)*%
X143690000Y-113960000D03*
%TD*%
D10*
%TO.P,D2,1,K_1*%
%TO.N,Row 0*%
X162690000Y-106000000D03*
D11*
%TO.P,D2,2,A_2*%
%TO.N,Net-(D2-A)*%
X170310000Y-106000000D03*
%TD*%
D10*
%TO.P,D8,1,K_1*%
%TO.N,Row 2*%
X162690000Y-144000000D03*
D11*
%TO.P,D8,2,A_2*%
%TO.N,Net-(D8-A)*%
X170310000Y-144000000D03*
%TD*%
D13*
%TO.P,SW10,A,A_A*%
%TO.N,Pot A1*%
X178250000Y-78000000D03*
D14*
%TO.P,SW10,B,B_B*%
%TO.N,Pot A2*%
X178250000Y-83000000D03*
%TO.P,SW10,C,C_C*%
%TO.N,GND*%
X178250000Y-80500000D03*
D15*
%TO.P,SW10,MP*%
%TO.N,N/C*%
X185750000Y-74900000D03*
X185750000Y-86100000D03*
D14*
%TO.P,SW10,S1,S1_S1*%
%TO.N,GND*%
X192750000Y-83000000D03*
%TO.P,SW10,S2,S2_S2*%
%TO.N,Pot Btn1*%
X192750000Y-78000000D03*
%TD*%
D12*
%TO.P,SW4,1,1_1*%
%TO.N,Column 0*%
X169040000Y-92420000D03*
%TO.P,SW4,2,2_2*%
%TO.N,Net-(D4-A)*%
X162690000Y-94960000D03*
%TD*%
%TO.P,SW3,1,1_1*%
%TO.N,Column 2*%
X150040000Y-130420000D03*
%TO.P,SW3,2,2_2*%
%TO.N,Net-(D3-A)*%
X143690000Y-132960000D03*
%TD*%
%TO.P,SW1,1,1_1*%
%TO.N,Column 0*%
X150040000Y-92420000D03*
%TO.P,SW1,2,2_2*%
%TO.N,Net-(D1-A)*%
X143690000Y-94960000D03*
%TD*%
D10*
%TO.P,D1,1,K_1*%
%TO.N,Row 0*%
X143690000Y-106000000D03*
D11*
%TO.P,D1,2,A_2*%
%TO.N,Net-(D1-A)*%
X151310000Y-106000000D03*
%TD*%
D12*
%TO.P,SW7,1,1_1*%
%TO.N,Column 0*%
X188040000Y-92420000D03*
%TO.P,SW7,2,2_2*%
%TO.N,Net-(D7-A)*%
X181690000Y-94960000D03*
%TD*%
D10*
%TO.P,D5,1,K_1*%
%TO.N,Row 1*%
X162690000Y-125000000D03*
D11*
%TO.P,D5,2,A_2*%
%TO.N,Net-(D5-A)*%
X170310000Y-125000000D03*
%TD*%
D16*
%TO.N,+5V*%
X137282700Y-130285200D03*
X152012500Y-70987500D03*
X158801700Y-131245500D03*
X175125000Y-132430900D03*
X186100000Y-70306300D03*
%TO.N,LED Data*%
X150650000Y-83730100D03*
%TO.N,GND*%
X192688800Y-122500000D03*
X147150000Y-79769700D03*
X177801700Y-122500000D03*
%TO.N,Column 2*%
X171675400Y-82460000D03*
%TO.N,Net-(D2-A)*%
X169978800Y-108311200D03*
%TO.N,Net-(D3-A)*%
X152246300Y-107301700D03*
%TO.N,Net-(D4-A)*%
X150978300Y-94960000D03*
%TO.N,Net-(D6-A)*%
X162690000Y-126301700D03*
%TO.N,Net-(D7-A)*%
X186977400Y-139659500D03*
%TO.N,Net-(D16-DOUT)*%
X176875000Y-94184100D03*
X157873100Y-93290100D03*
%TO.N,Net-(D19-DOUT)*%
X175125000Y-138650000D03*
X193625000Y-138650000D03*
%TO.N,Pot A2*%
X161500000Y-81198000D03*
%TD*%
%TO.N,+5V*%
D17*
X147640000Y-130285200D02*
X149376500Y-132021700D01*
X167320400Y-132430900D02*
X166135000Y-131245500D01*
X154502000Y-68498000D02*
X152012500Y-70987500D01*
X185553700Y-69760000D02*
X174075000Y-69760000D01*
X172813000Y-68498000D02*
X154502000Y-68498000D01*
X186100000Y-70306300D02*
X185553700Y-69760000D01*
X166135000Y-131245500D02*
X158801700Y-131245500D01*
X175125000Y-132430900D02*
X167320400Y-132430900D01*
X158025500Y-132021700D02*
X158801700Y-131245500D01*
X174075000Y-69760000D02*
X172813000Y-68498000D01*
X149376500Y-132021700D02*
X158025500Y-132021700D01*
X137282700Y-130285200D02*
X147640000Y-130285200D01*
%TO.N,LED Data*%
X174075000Y-85000000D02*
X172805100Y-83730100D01*
X172805100Y-83730100D02*
X150650000Y-83730100D01*
%TO.N,GND*%
X172805000Y-71030000D02*
X155889700Y-71030000D01*
X155889700Y-71030000D02*
X147150000Y-79769700D01*
X192688800Y-122500000D02*
X177801700Y-122500000D01*
X174075000Y-72300000D02*
X172805000Y-71030000D01*
%TO.N,Row 0*%
X161290000Y-104658800D02*
X178948800Y-104658800D01*
X143690000Y-106000000D02*
X145090000Y-106000000D01*
X181690000Y-106000000D02*
X180290000Y-106000000D01*
X146431200Y-104658800D02*
X161290000Y-104658800D01*
X145090000Y-106000000D02*
X146431200Y-104658800D01*
X178948800Y-104658800D02*
X180290000Y-106000000D01*
X161290000Y-104658800D02*
X161290000Y-106000000D01*
X162690000Y-106000000D02*
X161290000Y-106000000D01*
%TO.N,Row 1*%
X146419600Y-126329600D02*
X159960400Y-126329600D01*
X145090000Y-125000000D02*
X146419600Y-126329600D01*
X143690000Y-125000000D02*
X145090000Y-125000000D01*
X159960400Y-126329600D02*
X161290000Y-125000000D01*
X164090000Y-125000000D02*
X165452600Y-123637400D01*
X162690000Y-125000000D02*
X164090000Y-125000000D01*
X178927400Y-123637400D02*
X180290000Y-125000000D01*
X162690000Y-125000000D02*
X161290000Y-125000000D01*
X165452600Y-123637400D02*
X178927400Y-123637400D01*
X181690000Y-125000000D02*
X180290000Y-125000000D01*
%TO.N,Row 2*%
X181690000Y-144000000D02*
X180290000Y-144000000D01*
X162690000Y-144000000D02*
X164090000Y-144000000D01*
X164090000Y-144000000D02*
X165456000Y-142634000D01*
X143690000Y-144000000D02*
X145090000Y-144000000D01*
X161290000Y-144000000D02*
X159939300Y-145350700D01*
X159939300Y-145350700D02*
X146440700Y-145350700D01*
X165456000Y-142634000D02*
X178924000Y-142634000D01*
X178924000Y-142634000D02*
X180290000Y-144000000D01*
X161990000Y-144000000D02*
X161290000Y-144000000D01*
X161990000Y-144000000D02*
X162690000Y-144000000D01*
X146440700Y-145350700D02*
X145090000Y-144000000D01*
%TO.N,Column 0*%
X188040000Y-92420000D02*
X169040000Y-92420000D01*
X169040000Y-92420000D02*
X150040000Y-92420000D01*
%TO.N,Column 1*%
X150040000Y-111420000D02*
X169040000Y-111420000D01*
X188040000Y-111420000D02*
X169040000Y-111420000D01*
%TO.N,Column 2*%
X188040000Y-130420000D02*
X169040000Y-130420000D01*
X174075000Y-82460000D02*
X171675400Y-82460000D01*
X169040000Y-130420000D02*
X150040000Y-130420000D01*
%TO.N,Net-(D2-A)*%
X143690000Y-113960000D02*
X149338800Y-108311200D01*
X149338800Y-108311200D02*
X169978800Y-108311200D01*
%TO.N,Net-(D3-A)*%
X187910000Y-106000000D02*
X186608300Y-107301700D01*
X189310000Y-106000000D02*
X187910000Y-106000000D01*
X186608300Y-107301700D02*
X152246300Y-107301700D01*
%TO.N,Net-(D4-A)*%
X162690000Y-94960000D02*
X150978300Y-94960000D01*
%TO.N,Net-(D6-A)*%
X186608300Y-126301700D02*
X162690000Y-126301700D01*
X187910000Y-125000000D02*
X186608300Y-126301700D01*
X189310000Y-125000000D02*
X187910000Y-125000000D01*
%TO.N,Net-(D7-A)*%
X152710000Y-144000000D02*
X157050500Y-139659500D01*
X151310000Y-144000000D02*
X152710000Y-144000000D01*
X157050500Y-139659500D02*
X186977400Y-139659500D01*
%TO.N,Net-(D16-DOUT)*%
X167073500Y-94184100D02*
X166179500Y-93290100D01*
X176875000Y-94184100D02*
X167073500Y-94184100D01*
X166179500Y-93290100D02*
X157873100Y-93290100D01*
%TO.N,Net-(D19-DOUT)*%
X193625000Y-138650000D02*
X175125000Y-138650000D01*
%TO.N,Pot A1*%
X152500000Y-78000000D02*
X145500000Y-85000000D01*
X178250000Y-78000000D02*
X152500000Y-78000000D01*
X155788330Y-70000000D02*
X157000000Y-70000000D01*
X145000000Y-76500000D02*
X149288330Y-76500000D01*
X145500000Y-85000000D02*
X145000000Y-84500000D01*
X149288330Y-76500000D02*
X155788330Y-70000000D01*
X145000000Y-84500000D02*
X145000000Y-76500000D01*
%TO.N,Pot A2*%
X161500000Y-81198000D02*
X176448000Y-81198000D01*
X176448000Y-81198000D02*
X178250000Y-83000000D01*
%TO.N,Pot Btn1*%
X192750000Y-78000000D02*
X185250000Y-78000000D01*
X180812000Y-73562000D02*
X160113000Y-73562000D01*
X185250000Y-78000000D02*
X180812000Y-73562000D01*
X160113000Y-73562000D02*
X158835000Y-74840000D01*
%TD*%
M02*
