%TF.GenerationSoftware,KiCad,Pcbnew,10.0.4*%
%TF.CreationDate,2026-07-17T20:56:49+12:00*%
%TF.ProjectId,LiPad,4c695061-642e-46b6-9963-61645f706362,2*%
%TF.SameCoordinates,Original*%
%TF.FileFunction,Drillmap*%
%TF.FilePolarity,Positive*%
%FSLAX45Y45*%
G04 Gerber Fmt 4.5, Leading zero omitted, Abs format (unit mm)*
G04 Created by KiCad (PCBNEW 10.0.4) date 2026-07-17 20:56:49*
%MOMM*%
%LPD*%
G01*
G04 APERTURE LIST*
%ADD10C,0.200000*%
%ADD11C,0.100000*%
%ADD12C,0.150000*%
G04 APERTURE END LIST*
D10*
X13300000Y-6950000D02*
G75*
G02*
X13600000Y-6650000I300000J0D01*
G01*
X13300000Y-14650000D02*
X13300000Y-6950000D01*
X13600000Y-6650000D02*
X19700000Y-6650000D01*
X13600000Y-14950000D02*
G75*
G02*
X13300000Y-14650000I0J300000D01*
G01*
X19700000Y-6650000D02*
G75*
G02*
X20000000Y-6950000I0J-300000D01*
G01*
X19700000Y-14950000D02*
X13600000Y-14950000D01*
X20000000Y-6950000D02*
X20000000Y-14650000D01*
X20000000Y-14650000D02*
G75*
G02*
X19700000Y-14950000I-300000J0D01*
G01*
D11*
X13713270Y-13013520D02*
X13743270Y-13043520D01*
X13743270Y-13013520D02*
X13713270Y-13043520D01*
X14700000Y-7961970D02*
X14730000Y-7991970D01*
X14730000Y-7961970D02*
X14700000Y-7991970D01*
X15050000Y-8358010D02*
X15080000Y-8388010D01*
X15080000Y-8358010D02*
X15050000Y-8388010D01*
X15082830Y-9481000D02*
X15112830Y-9511000D01*
X15112830Y-9481000D02*
X15082830Y-9511000D01*
X15186250Y-7083750D02*
X15216250Y-7113750D01*
X15216250Y-7083750D02*
X15186250Y-7113750D01*
X15209630Y-10715170D02*
X15239630Y-10745170D01*
X15239630Y-10715170D02*
X15209630Y-10745170D01*
X15772310Y-9314010D02*
X15802310Y-9344010D01*
X15802310Y-9314010D02*
X15772310Y-9344010D01*
X15865170Y-13109550D02*
X15895170Y-13139550D01*
X15895170Y-13109550D02*
X15865170Y-13139550D01*
X16135000Y-8104800D02*
X16165000Y-8134800D01*
X16165000Y-8104800D02*
X16135000Y-8134800D01*
X16254000Y-12615170D02*
X16284000Y-12645170D01*
X16284000Y-12615170D02*
X16254000Y-12645170D01*
X16982880Y-10816120D02*
X17012880Y-10846120D01*
X17012880Y-10816120D02*
X16982880Y-10846120D01*
X17152540Y-8231000D02*
X17182540Y-8261000D01*
X17182540Y-8231000D02*
X17152540Y-8261000D01*
X17497500Y-13228090D02*
X17527500Y-13258090D01*
X17527500Y-13228090D02*
X17497500Y-13258090D01*
X17497500Y-13850000D02*
X17527500Y-13880000D01*
X17527500Y-13850000D02*
X17497500Y-13880000D01*
X17672500Y-9403410D02*
X17702500Y-9433410D01*
X17702500Y-9403410D02*
X17672500Y-9433410D01*
X17765170Y-12235000D02*
X17795170Y-12265000D01*
X17795170Y-12235000D02*
X17765170Y-12265000D01*
X18595000Y-7015630D02*
X18625000Y-7045630D01*
X18625000Y-7015630D02*
X18595000Y-7045630D01*
X18682740Y-13950950D02*
X18712740Y-13980950D01*
X18712740Y-13950950D02*
X18682740Y-13980950D01*
X19253880Y-12235000D02*
X19283880Y-12265000D01*
X19283880Y-12235000D02*
X19253880Y-12265000D01*
X19347500Y-13850000D02*
X19377500Y-13880000D01*
X19377500Y-13850000D02*
X19347500Y-13880000D01*
X14409000Y-10600000D02*
G75*
G02*
X14329000Y-10600000I-40000J0D01*
G01*
X14329000Y-10600000D02*
G75*
G02*
X14409000Y-10600000I40000J0D01*
G01*
X14409000Y-12500000D02*
G75*
G02*
X14329000Y-12500000I-40000J0D01*
G01*
X14329000Y-12500000D02*
G75*
G02*
X14409000Y-12500000I40000J0D01*
G01*
X14409000Y-14400000D02*
G75*
G02*
X14329000Y-14400000I-40000J0D01*
G01*
X14329000Y-14400000D02*
G75*
G02*
X14409000Y-14400000I40000J0D01*
G01*
X15171000Y-10600000D02*
G75*
G02*
X15091000Y-10600000I-40000J0D01*
G01*
X15091000Y-10600000D02*
G75*
G02*
X15171000Y-10600000I40000J0D01*
G01*
X15171000Y-12500000D02*
G75*
G02*
X15091000Y-12500000I-40000J0D01*
G01*
X15091000Y-12500000D02*
G75*
G02*
X15171000Y-12500000I40000J0D01*
G01*
X15171000Y-14400000D02*
G75*
G02*
X15091000Y-14400000I-40000J0D01*
G01*
X15091000Y-14400000D02*
G75*
G02*
X15171000Y-14400000I40000J0D01*
G01*
X16309000Y-10600000D02*
G75*
G02*
X16229000Y-10600000I-40000J0D01*
G01*
X16229000Y-10600000D02*
G75*
G02*
X16309000Y-10600000I40000J0D01*
G01*
X16309000Y-12500000D02*
G75*
G02*
X16229000Y-12500000I-40000J0D01*
G01*
X16229000Y-12500000D02*
G75*
G02*
X16309000Y-12500000I40000J0D01*
G01*
X16309000Y-14400000D02*
G75*
G02*
X16229000Y-14400000I-40000J0D01*
G01*
X16229000Y-14400000D02*
G75*
G02*
X16309000Y-14400000I40000J0D01*
G01*
X17071000Y-10600000D02*
G75*
G02*
X16991000Y-10600000I-40000J0D01*
G01*
X16991000Y-10600000D02*
G75*
G02*
X17071000Y-10600000I40000J0D01*
G01*
X17071000Y-12500000D02*
G75*
G02*
X16991000Y-12500000I-40000J0D01*
G01*
X16991000Y-12500000D02*
G75*
G02*
X17071000Y-12500000I40000J0D01*
G01*
X17071000Y-14400000D02*
G75*
G02*
X16991000Y-14400000I-40000J0D01*
G01*
X16991000Y-14400000D02*
G75*
G02*
X17071000Y-14400000I40000J0D01*
G01*
X18209000Y-10600000D02*
G75*
G02*
X18129000Y-10600000I-40000J0D01*
G01*
X18129000Y-10600000D02*
G75*
G02*
X18209000Y-10600000I40000J0D01*
G01*
X18209000Y-12500000D02*
G75*
G02*
X18129000Y-12500000I-40000J0D01*
G01*
X18129000Y-12500000D02*
G75*
G02*
X18209000Y-12500000I40000J0D01*
G01*
X18209000Y-14400000D02*
G75*
G02*
X18129000Y-14400000I-40000J0D01*
G01*
X18129000Y-14400000D02*
G75*
G02*
X18209000Y-14400000I40000J0D01*
G01*
X18971000Y-10600000D02*
G75*
G02*
X18891000Y-10600000I-40000J0D01*
G01*
X18891000Y-10600000D02*
G75*
G02*
X18971000Y-10600000I40000J0D01*
G01*
X18971000Y-12500000D02*
G75*
G02*
X18891000Y-12500000I-40000J0D01*
G01*
X18891000Y-12500000D02*
G75*
G02*
X18971000Y-12500000I40000J0D01*
G01*
X18971000Y-14400000D02*
G75*
G02*
X18891000Y-14400000I-40000J0D01*
G01*
X18891000Y-14400000D02*
G75*
G02*
X18971000Y-14400000I40000J0D01*
G01*
X17825000Y-7750000D02*
X17825000Y-7850000D01*
X17775000Y-7800000D02*
X17875000Y-7800000D01*
X17825000Y-8000000D02*
X17825000Y-8100000D01*
X17775000Y-8050000D02*
X17875000Y-8050000D01*
X17825000Y-8250000D02*
X17825000Y-8350000D01*
X17775000Y-8300000D02*
X17875000Y-8300000D01*
X19275000Y-7750000D02*
X19275000Y-7850000D01*
X19225000Y-7800000D02*
X19325000Y-7800000D01*
X19275000Y-8250000D02*
X19275000Y-8350000D01*
X19225000Y-8300000D02*
X19325000Y-8300000D01*
D12*
X14422033Y-9549034D02*
X14422033Y-9442967D01*
X14315966Y-9442967D01*
X14315966Y-9549034D01*
X14422033Y-9549034D01*
X14422033Y-11449033D02*
X14422033Y-11342966D01*
X14315966Y-11342966D01*
X14315966Y-11449033D01*
X14422033Y-11449033D01*
X14422033Y-13349033D02*
X14422033Y-13242966D01*
X14315966Y-13242966D01*
X14315966Y-13349033D01*
X14422033Y-13349033D01*
X15057033Y-9295034D02*
X15057033Y-9188967D01*
X14950966Y-9188967D01*
X14950966Y-9295034D01*
X15057033Y-9295034D01*
X15057033Y-11195033D02*
X15057033Y-11088967D01*
X14950966Y-11088967D01*
X14950966Y-11195033D01*
X15057033Y-11195033D01*
X15057033Y-13095033D02*
X15057033Y-12988966D01*
X14950966Y-12988966D01*
X14950966Y-13095033D01*
X15057033Y-13095033D01*
X16322033Y-9549034D02*
X16322033Y-9442967D01*
X16215966Y-9442967D01*
X16215966Y-9549034D01*
X16322033Y-9549034D01*
X16322033Y-11449033D02*
X16322033Y-11342966D01*
X16215966Y-11342966D01*
X16215966Y-11449033D01*
X16322033Y-11449033D01*
X16322033Y-13349033D02*
X16322033Y-13242966D01*
X16215966Y-13242966D01*
X16215966Y-13349033D01*
X16322033Y-13349033D01*
X16957034Y-9295034D02*
X16957034Y-9188967D01*
X16850967Y-9188967D01*
X16850967Y-9295034D01*
X16957034Y-9295034D01*
X16957034Y-11195033D02*
X16957034Y-11088967D01*
X16850967Y-11088967D01*
X16850967Y-11195033D01*
X16957034Y-11195033D01*
X16957034Y-13095033D02*
X16957034Y-12988966D01*
X16850967Y-12988966D01*
X16850967Y-13095033D01*
X16957034Y-13095033D01*
X18222034Y-9549034D02*
X18222034Y-9442967D01*
X18115967Y-9442967D01*
X18115967Y-9549034D01*
X18222034Y-9549034D01*
X18222034Y-11449033D02*
X18222034Y-11342966D01*
X18115967Y-11342966D01*
X18115967Y-11449033D01*
X18222034Y-11449033D01*
X18222034Y-13349033D02*
X18222034Y-13242966D01*
X18115967Y-13242966D01*
X18115967Y-13349033D01*
X18222034Y-13349033D01*
X18628034Y-7543033D02*
X18628034Y-7436966D01*
X18521967Y-7436966D01*
X18521967Y-7543033D01*
X18628034Y-7543033D01*
D11*
X18510000Y-7565000D02*
X18640000Y-7565000D01*
X18640000Y-7415000D02*
G75*
G02*
X18640000Y-7565000I0J-75000D01*
G01*
X18640000Y-7415000D02*
X18510000Y-7415000D01*
X18510000Y-7415000D02*
G75*
G03*
X18510000Y-7565000I0J-75000D01*
G01*
D12*
X18628034Y-8663034D02*
X18628034Y-8556967D01*
X18521967Y-8556967D01*
X18521967Y-8663034D01*
X18628034Y-8663034D01*
D11*
X18510000Y-8685000D02*
X18640000Y-8685000D01*
X18640000Y-8535000D02*
G75*
G02*
X18640000Y-8685000I0J-75000D01*
G01*
X18640000Y-8535000D02*
X18510000Y-8535000D01*
X18510000Y-8535000D02*
G75*
G03*
X18510000Y-8685000I0J-75000D01*
G01*
D12*
X18857034Y-9295034D02*
X18857034Y-9188967D01*
X18750967Y-9188967D01*
X18750967Y-9295034D01*
X18857034Y-9295034D01*
X18857034Y-11195033D02*
X18857034Y-11088967D01*
X18750967Y-11088967D01*
X18750967Y-11195033D01*
X18857034Y-11195033D01*
X18857034Y-13095033D02*
X18857034Y-12988966D01*
X18750967Y-12988966D01*
X18750967Y-13095033D01*
X18857034Y-13095033D01*
D10*
X13550777Y-15271484D02*
X13550777Y-15071484D01*
X13550777Y-15071484D02*
X13598396Y-15071484D01*
X13598396Y-15071484D02*
X13626967Y-15081008D01*
X13626967Y-15081008D02*
X13646015Y-15100055D01*
X13646015Y-15100055D02*
X13655539Y-15119103D01*
X13655539Y-15119103D02*
X13665062Y-15157198D01*
X13665062Y-15157198D02*
X13665062Y-15185769D01*
X13665062Y-15185769D02*
X13655539Y-15223865D01*
X13655539Y-15223865D02*
X13646015Y-15242912D01*
X13646015Y-15242912D02*
X13626967Y-15261960D01*
X13626967Y-15261960D02*
X13598396Y-15271484D01*
X13598396Y-15271484D02*
X13550777Y-15271484D01*
X13750777Y-15271484D02*
X13750777Y-15138150D01*
X13750777Y-15176246D02*
X13760301Y-15157198D01*
X13760301Y-15157198D02*
X13769824Y-15147674D01*
X13769824Y-15147674D02*
X13788872Y-15138150D01*
X13788872Y-15138150D02*
X13807920Y-15138150D01*
X13874586Y-15271484D02*
X13874586Y-15138150D01*
X13874586Y-15071484D02*
X13865062Y-15081008D01*
X13865062Y-15081008D02*
X13874586Y-15090531D01*
X13874586Y-15090531D02*
X13884110Y-15081008D01*
X13884110Y-15081008D02*
X13874586Y-15071484D01*
X13874586Y-15071484D02*
X13874586Y-15090531D01*
X13998396Y-15271484D02*
X13979348Y-15261960D01*
X13979348Y-15261960D02*
X13969824Y-15242912D01*
X13969824Y-15242912D02*
X13969824Y-15071484D01*
X14103158Y-15271484D02*
X14084110Y-15261960D01*
X14084110Y-15261960D02*
X14074586Y-15242912D01*
X14074586Y-15242912D02*
X14074586Y-15071484D01*
X14331729Y-15271484D02*
X14331729Y-15071484D01*
X14331729Y-15071484D02*
X14398396Y-15214341D01*
X14398396Y-15214341D02*
X14465062Y-15071484D01*
X14465062Y-15071484D02*
X14465062Y-15271484D01*
X14646015Y-15271484D02*
X14646015Y-15166722D01*
X14646015Y-15166722D02*
X14636491Y-15147674D01*
X14636491Y-15147674D02*
X14617443Y-15138150D01*
X14617443Y-15138150D02*
X14579348Y-15138150D01*
X14579348Y-15138150D02*
X14560301Y-15147674D01*
X14646015Y-15261960D02*
X14626967Y-15271484D01*
X14626967Y-15271484D02*
X14579348Y-15271484D01*
X14579348Y-15271484D02*
X14560301Y-15261960D01*
X14560301Y-15261960D02*
X14550777Y-15242912D01*
X14550777Y-15242912D02*
X14550777Y-15223865D01*
X14550777Y-15223865D02*
X14560301Y-15204817D01*
X14560301Y-15204817D02*
X14579348Y-15195293D01*
X14579348Y-15195293D02*
X14626967Y-15195293D01*
X14626967Y-15195293D02*
X14646015Y-15185769D01*
X14741253Y-15138150D02*
X14741253Y-15338150D01*
X14741253Y-15147674D02*
X14760301Y-15138150D01*
X14760301Y-15138150D02*
X14798396Y-15138150D01*
X14798396Y-15138150D02*
X14817443Y-15147674D01*
X14817443Y-15147674D02*
X14826967Y-15157198D01*
X14826967Y-15157198D02*
X14836491Y-15176246D01*
X14836491Y-15176246D02*
X14836491Y-15233388D01*
X14836491Y-15233388D02*
X14826967Y-15252436D01*
X14826967Y-15252436D02*
X14817443Y-15261960D01*
X14817443Y-15261960D02*
X14798396Y-15271484D01*
X14798396Y-15271484D02*
X14760301Y-15271484D01*
X14760301Y-15271484D02*
X14741253Y-15261960D01*
X14922205Y-15252436D02*
X14931729Y-15261960D01*
X14931729Y-15261960D02*
X14922205Y-15271484D01*
X14922205Y-15271484D02*
X14912682Y-15261960D01*
X14912682Y-15261960D02*
X14922205Y-15252436D01*
X14922205Y-15252436D02*
X14922205Y-15271484D01*
X14922205Y-15147674D02*
X14931729Y-15157198D01*
X14931729Y-15157198D02*
X14922205Y-15166722D01*
X14922205Y-15166722D02*
X14912682Y-15157198D01*
X14912682Y-15157198D02*
X14922205Y-15147674D01*
X14922205Y-15147674D02*
X14922205Y-15166722D01*
D11*
X13260000Y-15585000D02*
X13290000Y-15615000D01*
X13290000Y-15585000D02*
X13260000Y-15615000D01*
D10*
X13588872Y-15491484D02*
X13607920Y-15491484D01*
X13607920Y-15491484D02*
X13626967Y-15501008D01*
X13626967Y-15501008D02*
X13636491Y-15510531D01*
X13636491Y-15510531D02*
X13646015Y-15529579D01*
X13646015Y-15529579D02*
X13655539Y-15567674D01*
X13655539Y-15567674D02*
X13655539Y-15615293D01*
X13655539Y-15615293D02*
X13646015Y-15653388D01*
X13646015Y-15653388D02*
X13636491Y-15672436D01*
X13636491Y-15672436D02*
X13626967Y-15681960D01*
X13626967Y-15681960D02*
X13607920Y-15691484D01*
X13607920Y-15691484D02*
X13588872Y-15691484D01*
X13588872Y-15691484D02*
X13569824Y-15681960D01*
X13569824Y-15681960D02*
X13560301Y-15672436D01*
X13560301Y-15672436D02*
X13550777Y-15653388D01*
X13550777Y-15653388D02*
X13541253Y-15615293D01*
X13541253Y-15615293D02*
X13541253Y-15567674D01*
X13541253Y-15567674D02*
X13550777Y-15529579D01*
X13550777Y-15529579D02*
X13560301Y-15510531D01*
X13560301Y-15510531D02*
X13569824Y-15501008D01*
X13569824Y-15501008D02*
X13588872Y-15491484D01*
X13741253Y-15672436D02*
X13750777Y-15681960D01*
X13750777Y-15681960D02*
X13741253Y-15691484D01*
X13741253Y-15691484D02*
X13731729Y-15681960D01*
X13731729Y-15681960D02*
X13741253Y-15672436D01*
X13741253Y-15672436D02*
X13741253Y-15691484D01*
X13817443Y-15491484D02*
X13941253Y-15491484D01*
X13941253Y-15491484D02*
X13874586Y-15567674D01*
X13874586Y-15567674D02*
X13903158Y-15567674D01*
X13903158Y-15567674D02*
X13922205Y-15577198D01*
X13922205Y-15577198D02*
X13931729Y-15586722D01*
X13931729Y-15586722D02*
X13941253Y-15605769D01*
X13941253Y-15605769D02*
X13941253Y-15653388D01*
X13941253Y-15653388D02*
X13931729Y-15672436D01*
X13931729Y-15672436D02*
X13922205Y-15681960D01*
X13922205Y-15681960D02*
X13903158Y-15691484D01*
X13903158Y-15691484D02*
X13846015Y-15691484D01*
X13846015Y-15691484D02*
X13826967Y-15681960D01*
X13826967Y-15681960D02*
X13817443Y-15672436D01*
X14065062Y-15491484D02*
X14084110Y-15491484D01*
X14084110Y-15491484D02*
X14103158Y-15501008D01*
X14103158Y-15501008D02*
X14112682Y-15510531D01*
X14112682Y-15510531D02*
X14122205Y-15529579D01*
X14122205Y-15529579D02*
X14131729Y-15567674D01*
X14131729Y-15567674D02*
X14131729Y-15615293D01*
X14131729Y-15615293D02*
X14122205Y-15653388D01*
X14122205Y-15653388D02*
X14112682Y-15672436D01*
X14112682Y-15672436D02*
X14103158Y-15681960D01*
X14103158Y-15681960D02*
X14084110Y-15691484D01*
X14084110Y-15691484D02*
X14065062Y-15691484D01*
X14065062Y-15691484D02*
X14046015Y-15681960D01*
X14046015Y-15681960D02*
X14036491Y-15672436D01*
X14036491Y-15672436D02*
X14026967Y-15653388D01*
X14026967Y-15653388D02*
X14017443Y-15615293D01*
X14017443Y-15615293D02*
X14017443Y-15567674D01*
X14017443Y-15567674D02*
X14026967Y-15529579D01*
X14026967Y-15529579D02*
X14036491Y-15510531D01*
X14036491Y-15510531D02*
X14046015Y-15501008D01*
X14046015Y-15501008D02*
X14065062Y-15491484D01*
X14255539Y-15491484D02*
X14274586Y-15491484D01*
X14274586Y-15491484D02*
X14293634Y-15501008D01*
X14293634Y-15501008D02*
X14303158Y-15510531D01*
X14303158Y-15510531D02*
X14312682Y-15529579D01*
X14312682Y-15529579D02*
X14322205Y-15567674D01*
X14322205Y-15567674D02*
X14322205Y-15615293D01*
X14322205Y-15615293D02*
X14312682Y-15653388D01*
X14312682Y-15653388D02*
X14303158Y-15672436D01*
X14303158Y-15672436D02*
X14293634Y-15681960D01*
X14293634Y-15681960D02*
X14274586Y-15691484D01*
X14274586Y-15691484D02*
X14255539Y-15691484D01*
X14255539Y-15691484D02*
X14236491Y-15681960D01*
X14236491Y-15681960D02*
X14226967Y-15672436D01*
X14226967Y-15672436D02*
X14217443Y-15653388D01*
X14217443Y-15653388D02*
X14207920Y-15615293D01*
X14207920Y-15615293D02*
X14207920Y-15567674D01*
X14207920Y-15567674D02*
X14217443Y-15529579D01*
X14217443Y-15529579D02*
X14226967Y-15510531D01*
X14226967Y-15510531D02*
X14236491Y-15501008D01*
X14236491Y-15501008D02*
X14255539Y-15491484D01*
X14407920Y-15691484D02*
X14407920Y-15558150D01*
X14407920Y-15577198D02*
X14417443Y-15567674D01*
X14417443Y-15567674D02*
X14436491Y-15558150D01*
X14436491Y-15558150D02*
X14465063Y-15558150D01*
X14465063Y-15558150D02*
X14484110Y-15567674D01*
X14484110Y-15567674D02*
X14493634Y-15586722D01*
X14493634Y-15586722D02*
X14493634Y-15691484D01*
X14493634Y-15586722D02*
X14503158Y-15567674D01*
X14503158Y-15567674D02*
X14522205Y-15558150D01*
X14522205Y-15558150D02*
X14550777Y-15558150D01*
X14550777Y-15558150D02*
X14569824Y-15567674D01*
X14569824Y-15567674D02*
X14579348Y-15586722D01*
X14579348Y-15586722D02*
X14579348Y-15691484D01*
X14674586Y-15691484D02*
X14674586Y-15558150D01*
X14674586Y-15577198D02*
X14684110Y-15567674D01*
X14684110Y-15567674D02*
X14703158Y-15558150D01*
X14703158Y-15558150D02*
X14731729Y-15558150D01*
X14731729Y-15558150D02*
X14750777Y-15567674D01*
X14750777Y-15567674D02*
X14760301Y-15586722D01*
X14760301Y-15586722D02*
X14760301Y-15691484D01*
X14760301Y-15586722D02*
X14769824Y-15567674D01*
X14769824Y-15567674D02*
X14788872Y-15558150D01*
X14788872Y-15558150D02*
X14817443Y-15558150D01*
X14817443Y-15558150D02*
X14836491Y-15567674D01*
X14836491Y-15567674D02*
X14846015Y-15586722D01*
X14846015Y-15586722D02*
X14846015Y-15691484D01*
X15236491Y-15481960D02*
X15065063Y-15739103D01*
X15493634Y-15491484D02*
X15512682Y-15491484D01*
X15512682Y-15491484D02*
X15531729Y-15501008D01*
X15531729Y-15501008D02*
X15541253Y-15510531D01*
X15541253Y-15510531D02*
X15550777Y-15529579D01*
X15550777Y-15529579D02*
X15560301Y-15567674D01*
X15560301Y-15567674D02*
X15560301Y-15615293D01*
X15560301Y-15615293D02*
X15550777Y-15653388D01*
X15550777Y-15653388D02*
X15541253Y-15672436D01*
X15541253Y-15672436D02*
X15531729Y-15681960D01*
X15531729Y-15681960D02*
X15512682Y-15691484D01*
X15512682Y-15691484D02*
X15493634Y-15691484D01*
X15493634Y-15691484D02*
X15474586Y-15681960D01*
X15474586Y-15681960D02*
X15465063Y-15672436D01*
X15465063Y-15672436D02*
X15455539Y-15653388D01*
X15455539Y-15653388D02*
X15446015Y-15615293D01*
X15446015Y-15615293D02*
X15446015Y-15567674D01*
X15446015Y-15567674D02*
X15455539Y-15529579D01*
X15455539Y-15529579D02*
X15465063Y-15510531D01*
X15465063Y-15510531D02*
X15474586Y-15501008D01*
X15474586Y-15501008D02*
X15493634Y-15491484D01*
X15646015Y-15672436D02*
X15655539Y-15681960D01*
X15655539Y-15681960D02*
X15646015Y-15691484D01*
X15646015Y-15691484D02*
X15636491Y-15681960D01*
X15636491Y-15681960D02*
X15646015Y-15672436D01*
X15646015Y-15672436D02*
X15646015Y-15691484D01*
X15779348Y-15491484D02*
X15798396Y-15491484D01*
X15798396Y-15491484D02*
X15817444Y-15501008D01*
X15817444Y-15501008D02*
X15826967Y-15510531D01*
X15826967Y-15510531D02*
X15836491Y-15529579D01*
X15836491Y-15529579D02*
X15846015Y-15567674D01*
X15846015Y-15567674D02*
X15846015Y-15615293D01*
X15846015Y-15615293D02*
X15836491Y-15653388D01*
X15836491Y-15653388D02*
X15826967Y-15672436D01*
X15826967Y-15672436D02*
X15817444Y-15681960D01*
X15817444Y-15681960D02*
X15798396Y-15691484D01*
X15798396Y-15691484D02*
X15779348Y-15691484D01*
X15779348Y-15691484D02*
X15760301Y-15681960D01*
X15760301Y-15681960D02*
X15750777Y-15672436D01*
X15750777Y-15672436D02*
X15741253Y-15653388D01*
X15741253Y-15653388D02*
X15731729Y-15615293D01*
X15731729Y-15615293D02*
X15731729Y-15567674D01*
X15731729Y-15567674D02*
X15741253Y-15529579D01*
X15741253Y-15529579D02*
X15750777Y-15510531D01*
X15750777Y-15510531D02*
X15760301Y-15501008D01*
X15760301Y-15501008D02*
X15779348Y-15491484D01*
X16036491Y-15691484D02*
X15922206Y-15691484D01*
X15979348Y-15691484D02*
X15979348Y-15491484D01*
X15979348Y-15491484D02*
X15960301Y-15520055D01*
X15960301Y-15520055D02*
X15941253Y-15539103D01*
X15941253Y-15539103D02*
X15922206Y-15548627D01*
X16226967Y-15691484D02*
X16112682Y-15691484D01*
X16169825Y-15691484D02*
X16169825Y-15491484D01*
X16169825Y-15491484D02*
X16150777Y-15520055D01*
X16150777Y-15520055D02*
X16131729Y-15539103D01*
X16131729Y-15539103D02*
X16112682Y-15548627D01*
X16341253Y-15577198D02*
X16322206Y-15567674D01*
X16322206Y-15567674D02*
X16312682Y-15558150D01*
X16312682Y-15558150D02*
X16303158Y-15539103D01*
X16303158Y-15539103D02*
X16303158Y-15529579D01*
X16303158Y-15529579D02*
X16312682Y-15510531D01*
X16312682Y-15510531D02*
X16322206Y-15501008D01*
X16322206Y-15501008D02*
X16341253Y-15491484D01*
X16341253Y-15491484D02*
X16379348Y-15491484D01*
X16379348Y-15491484D02*
X16398396Y-15501008D01*
X16398396Y-15501008D02*
X16407920Y-15510531D01*
X16407920Y-15510531D02*
X16417444Y-15529579D01*
X16417444Y-15529579D02*
X16417444Y-15539103D01*
X16417444Y-15539103D02*
X16407920Y-15558150D01*
X16407920Y-15558150D02*
X16398396Y-15567674D01*
X16398396Y-15567674D02*
X16379348Y-15577198D01*
X16379348Y-15577198D02*
X16341253Y-15577198D01*
X16341253Y-15577198D02*
X16322206Y-15586722D01*
X16322206Y-15586722D02*
X16312682Y-15596246D01*
X16312682Y-15596246D02*
X16303158Y-15615293D01*
X16303158Y-15615293D02*
X16303158Y-15653388D01*
X16303158Y-15653388D02*
X16312682Y-15672436D01*
X16312682Y-15672436D02*
X16322206Y-15681960D01*
X16322206Y-15681960D02*
X16341253Y-15691484D01*
X16341253Y-15691484D02*
X16379348Y-15691484D01*
X16379348Y-15691484D02*
X16398396Y-15681960D01*
X16398396Y-15681960D02*
X16407920Y-15672436D01*
X16407920Y-15672436D02*
X16417444Y-15653388D01*
X16417444Y-15653388D02*
X16417444Y-15615293D01*
X16417444Y-15615293D02*
X16407920Y-15596246D01*
X16407920Y-15596246D02*
X16398396Y-15586722D01*
X16398396Y-15586722D02*
X16379348Y-15577198D01*
X16493634Y-15491484D02*
X16493634Y-15529579D01*
X16569825Y-15491484D02*
X16569825Y-15529579D01*
X16865063Y-15767674D02*
X16855539Y-15758150D01*
X16855539Y-15758150D02*
X16836491Y-15729579D01*
X16836491Y-15729579D02*
X16826968Y-15710531D01*
X16826968Y-15710531D02*
X16817444Y-15681960D01*
X16817444Y-15681960D02*
X16807920Y-15634341D01*
X16807920Y-15634341D02*
X16807920Y-15596246D01*
X16807920Y-15596246D02*
X16817444Y-15548627D01*
X16817444Y-15548627D02*
X16826968Y-15520055D01*
X16826968Y-15520055D02*
X16836491Y-15501008D01*
X16836491Y-15501008D02*
X16855539Y-15472436D01*
X16855539Y-15472436D02*
X16865063Y-15462912D01*
X16931730Y-15510531D02*
X16941253Y-15501008D01*
X16941253Y-15501008D02*
X16960301Y-15491484D01*
X16960301Y-15491484D02*
X17007920Y-15491484D01*
X17007920Y-15491484D02*
X17026968Y-15501008D01*
X17026968Y-15501008D02*
X17036491Y-15510531D01*
X17036491Y-15510531D02*
X17046015Y-15529579D01*
X17046015Y-15529579D02*
X17046015Y-15548627D01*
X17046015Y-15548627D02*
X17036491Y-15577198D01*
X17036491Y-15577198D02*
X16922206Y-15691484D01*
X16922206Y-15691484D02*
X17046015Y-15691484D01*
X17169825Y-15491484D02*
X17188872Y-15491484D01*
X17188872Y-15491484D02*
X17207920Y-15501008D01*
X17207920Y-15501008D02*
X17217444Y-15510531D01*
X17217444Y-15510531D02*
X17226968Y-15529579D01*
X17226968Y-15529579D02*
X17236491Y-15567674D01*
X17236491Y-15567674D02*
X17236491Y-15615293D01*
X17236491Y-15615293D02*
X17226968Y-15653388D01*
X17226968Y-15653388D02*
X17217444Y-15672436D01*
X17217444Y-15672436D02*
X17207920Y-15681960D01*
X17207920Y-15681960D02*
X17188872Y-15691484D01*
X17188872Y-15691484D02*
X17169825Y-15691484D01*
X17169825Y-15691484D02*
X17150777Y-15681960D01*
X17150777Y-15681960D02*
X17141253Y-15672436D01*
X17141253Y-15672436D02*
X17131730Y-15653388D01*
X17131730Y-15653388D02*
X17122206Y-15615293D01*
X17122206Y-15615293D02*
X17122206Y-15567674D01*
X17122206Y-15567674D02*
X17131730Y-15529579D01*
X17131730Y-15529579D02*
X17141253Y-15510531D01*
X17141253Y-15510531D02*
X17150777Y-15501008D01*
X17150777Y-15501008D02*
X17169825Y-15491484D01*
X17474587Y-15691484D02*
X17474587Y-15491484D01*
X17560301Y-15691484D02*
X17560301Y-15586722D01*
X17560301Y-15586722D02*
X17550777Y-15567674D01*
X17550777Y-15567674D02*
X17531730Y-15558150D01*
X17531730Y-15558150D02*
X17503158Y-15558150D01*
X17503158Y-15558150D02*
X17484111Y-15567674D01*
X17484111Y-15567674D02*
X17474587Y-15577198D01*
X17684111Y-15691484D02*
X17665063Y-15681960D01*
X17665063Y-15681960D02*
X17655539Y-15672436D01*
X17655539Y-15672436D02*
X17646015Y-15653388D01*
X17646015Y-15653388D02*
X17646015Y-15596246D01*
X17646015Y-15596246D02*
X17655539Y-15577198D01*
X17655539Y-15577198D02*
X17665063Y-15567674D01*
X17665063Y-15567674D02*
X17684111Y-15558150D01*
X17684111Y-15558150D02*
X17712682Y-15558150D01*
X17712682Y-15558150D02*
X17731730Y-15567674D01*
X17731730Y-15567674D02*
X17741253Y-15577198D01*
X17741253Y-15577198D02*
X17750777Y-15596246D01*
X17750777Y-15596246D02*
X17750777Y-15653388D01*
X17750777Y-15653388D02*
X17741253Y-15672436D01*
X17741253Y-15672436D02*
X17731730Y-15681960D01*
X17731730Y-15681960D02*
X17712682Y-15691484D01*
X17712682Y-15691484D02*
X17684111Y-15691484D01*
X17865063Y-15691484D02*
X17846015Y-15681960D01*
X17846015Y-15681960D02*
X17836492Y-15662912D01*
X17836492Y-15662912D02*
X17836492Y-15491484D01*
X18017444Y-15681960D02*
X17998396Y-15691484D01*
X17998396Y-15691484D02*
X17960301Y-15691484D01*
X17960301Y-15691484D02*
X17941253Y-15681960D01*
X17941253Y-15681960D02*
X17931730Y-15662912D01*
X17931730Y-15662912D02*
X17931730Y-15586722D01*
X17931730Y-15586722D02*
X17941253Y-15567674D01*
X17941253Y-15567674D02*
X17960301Y-15558150D01*
X17960301Y-15558150D02*
X17998396Y-15558150D01*
X17998396Y-15558150D02*
X18017444Y-15567674D01*
X18017444Y-15567674D02*
X18026968Y-15586722D01*
X18026968Y-15586722D02*
X18026968Y-15605769D01*
X18026968Y-15605769D02*
X17931730Y-15624817D01*
X18103158Y-15681960D02*
X18122206Y-15691484D01*
X18122206Y-15691484D02*
X18160301Y-15691484D01*
X18160301Y-15691484D02*
X18179349Y-15681960D01*
X18179349Y-15681960D02*
X18188873Y-15662912D01*
X18188873Y-15662912D02*
X18188873Y-15653388D01*
X18188873Y-15653388D02*
X18179349Y-15634341D01*
X18179349Y-15634341D02*
X18160301Y-15624817D01*
X18160301Y-15624817D02*
X18131730Y-15624817D01*
X18131730Y-15624817D02*
X18112682Y-15615293D01*
X18112682Y-15615293D02*
X18103158Y-15596246D01*
X18103158Y-15596246D02*
X18103158Y-15586722D01*
X18103158Y-15586722D02*
X18112682Y-15567674D01*
X18112682Y-15567674D02*
X18131730Y-15558150D01*
X18131730Y-15558150D02*
X18160301Y-15558150D01*
X18160301Y-15558150D02*
X18179349Y-15567674D01*
X18255539Y-15767674D02*
X18265063Y-15758150D01*
X18265063Y-15758150D02*
X18284111Y-15729579D01*
X18284111Y-15729579D02*
X18293634Y-15710531D01*
X18293634Y-15710531D02*
X18303158Y-15681960D01*
X18303158Y-15681960D02*
X18312682Y-15634341D01*
X18312682Y-15634341D02*
X18312682Y-15596246D01*
X18312682Y-15596246D02*
X18303158Y-15548627D01*
X18303158Y-15548627D02*
X18293634Y-15520055D01*
X18293634Y-15520055D02*
X18284111Y-15501008D01*
X18284111Y-15501008D02*
X18265063Y-15472436D01*
X18265063Y-15472436D02*
X18255539Y-15462912D01*
D11*
X13290000Y-15864000D02*
G75*
G02*
X13210000Y-15864000I-40000J0D01*
G01*
X13210000Y-15864000D02*
G75*
G02*
X13290000Y-15864000I40000J0D01*
G01*
D10*
X13588872Y-15755484D02*
X13607920Y-15755484D01*
X13607920Y-15755484D02*
X13626967Y-15765008D01*
X13626967Y-15765008D02*
X13636491Y-15774531D01*
X13636491Y-15774531D02*
X13646015Y-15793579D01*
X13646015Y-15793579D02*
X13655539Y-15831674D01*
X13655539Y-15831674D02*
X13655539Y-15879293D01*
X13655539Y-15879293D02*
X13646015Y-15917388D01*
X13646015Y-15917388D02*
X13636491Y-15936436D01*
X13636491Y-15936436D02*
X13626967Y-15945960D01*
X13626967Y-15945960D02*
X13607920Y-15955484D01*
X13607920Y-15955484D02*
X13588872Y-15955484D01*
X13588872Y-15955484D02*
X13569824Y-15945960D01*
X13569824Y-15945960D02*
X13560301Y-15936436D01*
X13560301Y-15936436D02*
X13550777Y-15917388D01*
X13550777Y-15917388D02*
X13541253Y-15879293D01*
X13541253Y-15879293D02*
X13541253Y-15831674D01*
X13541253Y-15831674D02*
X13550777Y-15793579D01*
X13550777Y-15793579D02*
X13560301Y-15774531D01*
X13560301Y-15774531D02*
X13569824Y-15765008D01*
X13569824Y-15765008D02*
X13588872Y-15755484D01*
X13741253Y-15936436D02*
X13750777Y-15945960D01*
X13750777Y-15945960D02*
X13741253Y-15955484D01*
X13741253Y-15955484D02*
X13731729Y-15945960D01*
X13731729Y-15945960D02*
X13741253Y-15936436D01*
X13741253Y-15936436D02*
X13741253Y-15955484D01*
X13865062Y-15841198D02*
X13846015Y-15831674D01*
X13846015Y-15831674D02*
X13836491Y-15822150D01*
X13836491Y-15822150D02*
X13826967Y-15803103D01*
X13826967Y-15803103D02*
X13826967Y-15793579D01*
X13826967Y-15793579D02*
X13836491Y-15774531D01*
X13836491Y-15774531D02*
X13846015Y-15765008D01*
X13846015Y-15765008D02*
X13865062Y-15755484D01*
X13865062Y-15755484D02*
X13903158Y-15755484D01*
X13903158Y-15755484D02*
X13922205Y-15765008D01*
X13922205Y-15765008D02*
X13931729Y-15774531D01*
X13931729Y-15774531D02*
X13941253Y-15793579D01*
X13941253Y-15793579D02*
X13941253Y-15803103D01*
X13941253Y-15803103D02*
X13931729Y-15822150D01*
X13931729Y-15822150D02*
X13922205Y-15831674D01*
X13922205Y-15831674D02*
X13903158Y-15841198D01*
X13903158Y-15841198D02*
X13865062Y-15841198D01*
X13865062Y-15841198D02*
X13846015Y-15850722D01*
X13846015Y-15850722D02*
X13836491Y-15860246D01*
X13836491Y-15860246D02*
X13826967Y-15879293D01*
X13826967Y-15879293D02*
X13826967Y-15917388D01*
X13826967Y-15917388D02*
X13836491Y-15936436D01*
X13836491Y-15936436D02*
X13846015Y-15945960D01*
X13846015Y-15945960D02*
X13865062Y-15955484D01*
X13865062Y-15955484D02*
X13903158Y-15955484D01*
X13903158Y-15955484D02*
X13922205Y-15945960D01*
X13922205Y-15945960D02*
X13931729Y-15936436D01*
X13931729Y-15936436D02*
X13941253Y-15917388D01*
X13941253Y-15917388D02*
X13941253Y-15879293D01*
X13941253Y-15879293D02*
X13931729Y-15860246D01*
X13931729Y-15860246D02*
X13922205Y-15850722D01*
X13922205Y-15850722D02*
X13903158Y-15841198D01*
X14065062Y-15755484D02*
X14084110Y-15755484D01*
X14084110Y-15755484D02*
X14103158Y-15765008D01*
X14103158Y-15765008D02*
X14112682Y-15774531D01*
X14112682Y-15774531D02*
X14122205Y-15793579D01*
X14122205Y-15793579D02*
X14131729Y-15831674D01*
X14131729Y-15831674D02*
X14131729Y-15879293D01*
X14131729Y-15879293D02*
X14122205Y-15917388D01*
X14122205Y-15917388D02*
X14112682Y-15936436D01*
X14112682Y-15936436D02*
X14103158Y-15945960D01*
X14103158Y-15945960D02*
X14084110Y-15955484D01*
X14084110Y-15955484D02*
X14065062Y-15955484D01*
X14065062Y-15955484D02*
X14046015Y-15945960D01*
X14046015Y-15945960D02*
X14036491Y-15936436D01*
X14036491Y-15936436D02*
X14026967Y-15917388D01*
X14026967Y-15917388D02*
X14017443Y-15879293D01*
X14017443Y-15879293D02*
X14017443Y-15831674D01*
X14017443Y-15831674D02*
X14026967Y-15793579D01*
X14026967Y-15793579D02*
X14036491Y-15774531D01*
X14036491Y-15774531D02*
X14046015Y-15765008D01*
X14046015Y-15765008D02*
X14065062Y-15755484D01*
X14255539Y-15755484D02*
X14274586Y-15755484D01*
X14274586Y-15755484D02*
X14293634Y-15765008D01*
X14293634Y-15765008D02*
X14303158Y-15774531D01*
X14303158Y-15774531D02*
X14312682Y-15793579D01*
X14312682Y-15793579D02*
X14322205Y-15831674D01*
X14322205Y-15831674D02*
X14322205Y-15879293D01*
X14322205Y-15879293D02*
X14312682Y-15917388D01*
X14312682Y-15917388D02*
X14303158Y-15936436D01*
X14303158Y-15936436D02*
X14293634Y-15945960D01*
X14293634Y-15945960D02*
X14274586Y-15955484D01*
X14274586Y-15955484D02*
X14255539Y-15955484D01*
X14255539Y-15955484D02*
X14236491Y-15945960D01*
X14236491Y-15945960D02*
X14226967Y-15936436D01*
X14226967Y-15936436D02*
X14217443Y-15917388D01*
X14217443Y-15917388D02*
X14207920Y-15879293D01*
X14207920Y-15879293D02*
X14207920Y-15831674D01*
X14207920Y-15831674D02*
X14217443Y-15793579D01*
X14217443Y-15793579D02*
X14226967Y-15774531D01*
X14226967Y-15774531D02*
X14236491Y-15765008D01*
X14236491Y-15765008D02*
X14255539Y-15755484D01*
X14407920Y-15955484D02*
X14407920Y-15822150D01*
X14407920Y-15841198D02*
X14417443Y-15831674D01*
X14417443Y-15831674D02*
X14436491Y-15822150D01*
X14436491Y-15822150D02*
X14465063Y-15822150D01*
X14465063Y-15822150D02*
X14484110Y-15831674D01*
X14484110Y-15831674D02*
X14493634Y-15850722D01*
X14493634Y-15850722D02*
X14493634Y-15955484D01*
X14493634Y-15850722D02*
X14503158Y-15831674D01*
X14503158Y-15831674D02*
X14522205Y-15822150D01*
X14522205Y-15822150D02*
X14550777Y-15822150D01*
X14550777Y-15822150D02*
X14569824Y-15831674D01*
X14569824Y-15831674D02*
X14579348Y-15850722D01*
X14579348Y-15850722D02*
X14579348Y-15955484D01*
X14674586Y-15955484D02*
X14674586Y-15822150D01*
X14674586Y-15841198D02*
X14684110Y-15831674D01*
X14684110Y-15831674D02*
X14703158Y-15822150D01*
X14703158Y-15822150D02*
X14731729Y-15822150D01*
X14731729Y-15822150D02*
X14750777Y-15831674D01*
X14750777Y-15831674D02*
X14760301Y-15850722D01*
X14760301Y-15850722D02*
X14760301Y-15955484D01*
X14760301Y-15850722D02*
X14769824Y-15831674D01*
X14769824Y-15831674D02*
X14788872Y-15822150D01*
X14788872Y-15822150D02*
X14817443Y-15822150D01*
X14817443Y-15822150D02*
X14836491Y-15831674D01*
X14836491Y-15831674D02*
X14846015Y-15850722D01*
X14846015Y-15850722D02*
X14846015Y-15955484D01*
X15236491Y-15745960D02*
X15065063Y-16003103D01*
X15493634Y-15755484D02*
X15512682Y-15755484D01*
X15512682Y-15755484D02*
X15531729Y-15765008D01*
X15531729Y-15765008D02*
X15541253Y-15774531D01*
X15541253Y-15774531D02*
X15550777Y-15793579D01*
X15550777Y-15793579D02*
X15560301Y-15831674D01*
X15560301Y-15831674D02*
X15560301Y-15879293D01*
X15560301Y-15879293D02*
X15550777Y-15917388D01*
X15550777Y-15917388D02*
X15541253Y-15936436D01*
X15541253Y-15936436D02*
X15531729Y-15945960D01*
X15531729Y-15945960D02*
X15512682Y-15955484D01*
X15512682Y-15955484D02*
X15493634Y-15955484D01*
X15493634Y-15955484D02*
X15474586Y-15945960D01*
X15474586Y-15945960D02*
X15465063Y-15936436D01*
X15465063Y-15936436D02*
X15455539Y-15917388D01*
X15455539Y-15917388D02*
X15446015Y-15879293D01*
X15446015Y-15879293D02*
X15446015Y-15831674D01*
X15446015Y-15831674D02*
X15455539Y-15793579D01*
X15455539Y-15793579D02*
X15465063Y-15774531D01*
X15465063Y-15774531D02*
X15474586Y-15765008D01*
X15474586Y-15765008D02*
X15493634Y-15755484D01*
X15646015Y-15936436D02*
X15655539Y-15945960D01*
X15655539Y-15945960D02*
X15646015Y-15955484D01*
X15646015Y-15955484D02*
X15636491Y-15945960D01*
X15636491Y-15945960D02*
X15646015Y-15936436D01*
X15646015Y-15936436D02*
X15646015Y-15955484D01*
X15779348Y-15755484D02*
X15798396Y-15755484D01*
X15798396Y-15755484D02*
X15817444Y-15765008D01*
X15817444Y-15765008D02*
X15826967Y-15774531D01*
X15826967Y-15774531D02*
X15836491Y-15793579D01*
X15836491Y-15793579D02*
X15846015Y-15831674D01*
X15846015Y-15831674D02*
X15846015Y-15879293D01*
X15846015Y-15879293D02*
X15836491Y-15917388D01*
X15836491Y-15917388D02*
X15826967Y-15936436D01*
X15826967Y-15936436D02*
X15817444Y-15945960D01*
X15817444Y-15945960D02*
X15798396Y-15955484D01*
X15798396Y-15955484D02*
X15779348Y-15955484D01*
X15779348Y-15955484D02*
X15760301Y-15945960D01*
X15760301Y-15945960D02*
X15750777Y-15936436D01*
X15750777Y-15936436D02*
X15741253Y-15917388D01*
X15741253Y-15917388D02*
X15731729Y-15879293D01*
X15731729Y-15879293D02*
X15731729Y-15831674D01*
X15731729Y-15831674D02*
X15741253Y-15793579D01*
X15741253Y-15793579D02*
X15750777Y-15774531D01*
X15750777Y-15774531D02*
X15760301Y-15765008D01*
X15760301Y-15765008D02*
X15779348Y-15755484D01*
X15912682Y-15755484D02*
X16036491Y-15755484D01*
X16036491Y-15755484D02*
X15969825Y-15831674D01*
X15969825Y-15831674D02*
X15998396Y-15831674D01*
X15998396Y-15831674D02*
X16017444Y-15841198D01*
X16017444Y-15841198D02*
X16026967Y-15850722D01*
X16026967Y-15850722D02*
X16036491Y-15869769D01*
X16036491Y-15869769D02*
X16036491Y-15917388D01*
X16036491Y-15917388D02*
X16026967Y-15936436D01*
X16026967Y-15936436D02*
X16017444Y-15945960D01*
X16017444Y-15945960D02*
X15998396Y-15955484D01*
X15998396Y-15955484D02*
X15941253Y-15955484D01*
X15941253Y-15955484D02*
X15922206Y-15945960D01*
X15922206Y-15945960D02*
X15912682Y-15936436D01*
X16226967Y-15955484D02*
X16112682Y-15955484D01*
X16169825Y-15955484D02*
X16169825Y-15755484D01*
X16169825Y-15755484D02*
X16150777Y-15784055D01*
X16150777Y-15784055D02*
X16131729Y-15803103D01*
X16131729Y-15803103D02*
X16112682Y-15812627D01*
X16407920Y-15755484D02*
X16312682Y-15755484D01*
X16312682Y-15755484D02*
X16303158Y-15850722D01*
X16303158Y-15850722D02*
X16312682Y-15841198D01*
X16312682Y-15841198D02*
X16331729Y-15831674D01*
X16331729Y-15831674D02*
X16379348Y-15831674D01*
X16379348Y-15831674D02*
X16398396Y-15841198D01*
X16398396Y-15841198D02*
X16407920Y-15850722D01*
X16407920Y-15850722D02*
X16417444Y-15869769D01*
X16417444Y-15869769D02*
X16417444Y-15917388D01*
X16417444Y-15917388D02*
X16407920Y-15936436D01*
X16407920Y-15936436D02*
X16398396Y-15945960D01*
X16398396Y-15945960D02*
X16379348Y-15955484D01*
X16379348Y-15955484D02*
X16331729Y-15955484D01*
X16331729Y-15955484D02*
X16312682Y-15945960D01*
X16312682Y-15945960D02*
X16303158Y-15936436D01*
X16493634Y-15755484D02*
X16493634Y-15793579D01*
X16569825Y-15755484D02*
X16569825Y-15793579D01*
X16865063Y-16031674D02*
X16855539Y-16022150D01*
X16855539Y-16022150D02*
X16836491Y-15993579D01*
X16836491Y-15993579D02*
X16826968Y-15974531D01*
X16826968Y-15974531D02*
X16817444Y-15945960D01*
X16817444Y-15945960D02*
X16807920Y-15898341D01*
X16807920Y-15898341D02*
X16807920Y-15860246D01*
X16807920Y-15860246D02*
X16817444Y-15812627D01*
X16817444Y-15812627D02*
X16826968Y-15784055D01*
X16826968Y-15784055D02*
X16836491Y-15765008D01*
X16836491Y-15765008D02*
X16855539Y-15736436D01*
X16855539Y-15736436D02*
X16865063Y-15726912D01*
X17046015Y-15955484D02*
X16931730Y-15955484D01*
X16988872Y-15955484D02*
X16988872Y-15755484D01*
X16988872Y-15755484D02*
X16969825Y-15784055D01*
X16969825Y-15784055D02*
X16950777Y-15803103D01*
X16950777Y-15803103D02*
X16931730Y-15812627D01*
X17160301Y-15841198D02*
X17141253Y-15831674D01*
X17141253Y-15831674D02*
X17131730Y-15822150D01*
X17131730Y-15822150D02*
X17122206Y-15803103D01*
X17122206Y-15803103D02*
X17122206Y-15793579D01*
X17122206Y-15793579D02*
X17131730Y-15774531D01*
X17131730Y-15774531D02*
X17141253Y-15765008D01*
X17141253Y-15765008D02*
X17160301Y-15755484D01*
X17160301Y-15755484D02*
X17198396Y-15755484D01*
X17198396Y-15755484D02*
X17217444Y-15765008D01*
X17217444Y-15765008D02*
X17226968Y-15774531D01*
X17226968Y-15774531D02*
X17236491Y-15793579D01*
X17236491Y-15793579D02*
X17236491Y-15803103D01*
X17236491Y-15803103D02*
X17226968Y-15822150D01*
X17226968Y-15822150D02*
X17217444Y-15831674D01*
X17217444Y-15831674D02*
X17198396Y-15841198D01*
X17198396Y-15841198D02*
X17160301Y-15841198D01*
X17160301Y-15841198D02*
X17141253Y-15850722D01*
X17141253Y-15850722D02*
X17131730Y-15860246D01*
X17131730Y-15860246D02*
X17122206Y-15879293D01*
X17122206Y-15879293D02*
X17122206Y-15917388D01*
X17122206Y-15917388D02*
X17131730Y-15936436D01*
X17131730Y-15936436D02*
X17141253Y-15945960D01*
X17141253Y-15945960D02*
X17160301Y-15955484D01*
X17160301Y-15955484D02*
X17198396Y-15955484D01*
X17198396Y-15955484D02*
X17217444Y-15945960D01*
X17217444Y-15945960D02*
X17226968Y-15936436D01*
X17226968Y-15936436D02*
X17236491Y-15917388D01*
X17236491Y-15917388D02*
X17236491Y-15879293D01*
X17236491Y-15879293D02*
X17226968Y-15860246D01*
X17226968Y-15860246D02*
X17217444Y-15850722D01*
X17217444Y-15850722D02*
X17198396Y-15841198D01*
X17474587Y-15955484D02*
X17474587Y-15755484D01*
X17560301Y-15955484D02*
X17560301Y-15850722D01*
X17560301Y-15850722D02*
X17550777Y-15831674D01*
X17550777Y-15831674D02*
X17531730Y-15822150D01*
X17531730Y-15822150D02*
X17503158Y-15822150D01*
X17503158Y-15822150D02*
X17484111Y-15831674D01*
X17484111Y-15831674D02*
X17474587Y-15841198D01*
X17684111Y-15955484D02*
X17665063Y-15945960D01*
X17665063Y-15945960D02*
X17655539Y-15936436D01*
X17655539Y-15936436D02*
X17646015Y-15917388D01*
X17646015Y-15917388D02*
X17646015Y-15860246D01*
X17646015Y-15860246D02*
X17655539Y-15841198D01*
X17655539Y-15841198D02*
X17665063Y-15831674D01*
X17665063Y-15831674D02*
X17684111Y-15822150D01*
X17684111Y-15822150D02*
X17712682Y-15822150D01*
X17712682Y-15822150D02*
X17731730Y-15831674D01*
X17731730Y-15831674D02*
X17741253Y-15841198D01*
X17741253Y-15841198D02*
X17750777Y-15860246D01*
X17750777Y-15860246D02*
X17750777Y-15917388D01*
X17750777Y-15917388D02*
X17741253Y-15936436D01*
X17741253Y-15936436D02*
X17731730Y-15945960D01*
X17731730Y-15945960D02*
X17712682Y-15955484D01*
X17712682Y-15955484D02*
X17684111Y-15955484D01*
X17865063Y-15955484D02*
X17846015Y-15945960D01*
X17846015Y-15945960D02*
X17836492Y-15926912D01*
X17836492Y-15926912D02*
X17836492Y-15755484D01*
X18017444Y-15945960D02*
X17998396Y-15955484D01*
X17998396Y-15955484D02*
X17960301Y-15955484D01*
X17960301Y-15955484D02*
X17941253Y-15945960D01*
X17941253Y-15945960D02*
X17931730Y-15926912D01*
X17931730Y-15926912D02*
X17931730Y-15850722D01*
X17931730Y-15850722D02*
X17941253Y-15831674D01*
X17941253Y-15831674D02*
X17960301Y-15822150D01*
X17960301Y-15822150D02*
X17998396Y-15822150D01*
X17998396Y-15822150D02*
X18017444Y-15831674D01*
X18017444Y-15831674D02*
X18026968Y-15850722D01*
X18026968Y-15850722D02*
X18026968Y-15869769D01*
X18026968Y-15869769D02*
X17931730Y-15888817D01*
X18103158Y-15945960D02*
X18122206Y-15955484D01*
X18122206Y-15955484D02*
X18160301Y-15955484D01*
X18160301Y-15955484D02*
X18179349Y-15945960D01*
X18179349Y-15945960D02*
X18188873Y-15926912D01*
X18188873Y-15926912D02*
X18188873Y-15917388D01*
X18188873Y-15917388D02*
X18179349Y-15898341D01*
X18179349Y-15898341D02*
X18160301Y-15888817D01*
X18160301Y-15888817D02*
X18131730Y-15888817D01*
X18131730Y-15888817D02*
X18112682Y-15879293D01*
X18112682Y-15879293D02*
X18103158Y-15860246D01*
X18103158Y-15860246D02*
X18103158Y-15850722D01*
X18103158Y-15850722D02*
X18112682Y-15831674D01*
X18112682Y-15831674D02*
X18131730Y-15822150D01*
X18131730Y-15822150D02*
X18160301Y-15822150D01*
X18160301Y-15822150D02*
X18179349Y-15831674D01*
X18255539Y-16031674D02*
X18265063Y-16022150D01*
X18265063Y-16022150D02*
X18284111Y-15993579D01*
X18284111Y-15993579D02*
X18293634Y-15974531D01*
X18293634Y-15974531D02*
X18303158Y-15945960D01*
X18303158Y-15945960D02*
X18312682Y-15898341D01*
X18312682Y-15898341D02*
X18312682Y-15860246D01*
X18312682Y-15860246D02*
X18303158Y-15812627D01*
X18303158Y-15812627D02*
X18293634Y-15784055D01*
X18293634Y-15784055D02*
X18284111Y-15765008D01*
X18284111Y-15765008D02*
X18265063Y-15736436D01*
X18265063Y-15736436D02*
X18255539Y-15726912D01*
D11*
X13240000Y-16078000D02*
X13240000Y-16178000D01*
X13190000Y-16128000D02*
X13290000Y-16128000D01*
D10*
X13655539Y-16219484D02*
X13541253Y-16219484D01*
X13598396Y-16219484D02*
X13598396Y-16019484D01*
X13598396Y-16019484D02*
X13579348Y-16048055D01*
X13579348Y-16048055D02*
X13560301Y-16067103D01*
X13560301Y-16067103D02*
X13541253Y-16076627D01*
X13741253Y-16200436D02*
X13750777Y-16209960D01*
X13750777Y-16209960D02*
X13741253Y-16219484D01*
X13741253Y-16219484D02*
X13731729Y-16209960D01*
X13731729Y-16209960D02*
X13741253Y-16200436D01*
X13741253Y-16200436D02*
X13741253Y-16219484D01*
X13874586Y-16019484D02*
X13893634Y-16019484D01*
X13893634Y-16019484D02*
X13912682Y-16029008D01*
X13912682Y-16029008D02*
X13922205Y-16038531D01*
X13922205Y-16038531D02*
X13931729Y-16057579D01*
X13931729Y-16057579D02*
X13941253Y-16095674D01*
X13941253Y-16095674D02*
X13941253Y-16143293D01*
X13941253Y-16143293D02*
X13931729Y-16181388D01*
X13931729Y-16181388D02*
X13922205Y-16200436D01*
X13922205Y-16200436D02*
X13912682Y-16209960D01*
X13912682Y-16209960D02*
X13893634Y-16219484D01*
X13893634Y-16219484D02*
X13874586Y-16219484D01*
X13874586Y-16219484D02*
X13855539Y-16209960D01*
X13855539Y-16209960D02*
X13846015Y-16200436D01*
X13846015Y-16200436D02*
X13836491Y-16181388D01*
X13836491Y-16181388D02*
X13826967Y-16143293D01*
X13826967Y-16143293D02*
X13826967Y-16095674D01*
X13826967Y-16095674D02*
X13836491Y-16057579D01*
X13836491Y-16057579D02*
X13846015Y-16038531D01*
X13846015Y-16038531D02*
X13855539Y-16029008D01*
X13855539Y-16029008D02*
X13874586Y-16019484D01*
X14065062Y-16019484D02*
X14084110Y-16019484D01*
X14084110Y-16019484D02*
X14103158Y-16029008D01*
X14103158Y-16029008D02*
X14112682Y-16038531D01*
X14112682Y-16038531D02*
X14122205Y-16057579D01*
X14122205Y-16057579D02*
X14131729Y-16095674D01*
X14131729Y-16095674D02*
X14131729Y-16143293D01*
X14131729Y-16143293D02*
X14122205Y-16181388D01*
X14122205Y-16181388D02*
X14112682Y-16200436D01*
X14112682Y-16200436D02*
X14103158Y-16209960D01*
X14103158Y-16209960D02*
X14084110Y-16219484D01*
X14084110Y-16219484D02*
X14065062Y-16219484D01*
X14065062Y-16219484D02*
X14046015Y-16209960D01*
X14046015Y-16209960D02*
X14036491Y-16200436D01*
X14036491Y-16200436D02*
X14026967Y-16181388D01*
X14026967Y-16181388D02*
X14017443Y-16143293D01*
X14017443Y-16143293D02*
X14017443Y-16095674D01*
X14017443Y-16095674D02*
X14026967Y-16057579D01*
X14026967Y-16057579D02*
X14036491Y-16038531D01*
X14036491Y-16038531D02*
X14046015Y-16029008D01*
X14046015Y-16029008D02*
X14065062Y-16019484D01*
X14255539Y-16019484D02*
X14274586Y-16019484D01*
X14274586Y-16019484D02*
X14293634Y-16029008D01*
X14293634Y-16029008D02*
X14303158Y-16038531D01*
X14303158Y-16038531D02*
X14312682Y-16057579D01*
X14312682Y-16057579D02*
X14322205Y-16095674D01*
X14322205Y-16095674D02*
X14322205Y-16143293D01*
X14322205Y-16143293D02*
X14312682Y-16181388D01*
X14312682Y-16181388D02*
X14303158Y-16200436D01*
X14303158Y-16200436D02*
X14293634Y-16209960D01*
X14293634Y-16209960D02*
X14274586Y-16219484D01*
X14274586Y-16219484D02*
X14255539Y-16219484D01*
X14255539Y-16219484D02*
X14236491Y-16209960D01*
X14236491Y-16209960D02*
X14226967Y-16200436D01*
X14226967Y-16200436D02*
X14217443Y-16181388D01*
X14217443Y-16181388D02*
X14207920Y-16143293D01*
X14207920Y-16143293D02*
X14207920Y-16095674D01*
X14207920Y-16095674D02*
X14217443Y-16057579D01*
X14217443Y-16057579D02*
X14226967Y-16038531D01*
X14226967Y-16038531D02*
X14236491Y-16029008D01*
X14236491Y-16029008D02*
X14255539Y-16019484D01*
X14407920Y-16219484D02*
X14407920Y-16086150D01*
X14407920Y-16105198D02*
X14417443Y-16095674D01*
X14417443Y-16095674D02*
X14436491Y-16086150D01*
X14436491Y-16086150D02*
X14465063Y-16086150D01*
X14465063Y-16086150D02*
X14484110Y-16095674D01*
X14484110Y-16095674D02*
X14493634Y-16114722D01*
X14493634Y-16114722D02*
X14493634Y-16219484D01*
X14493634Y-16114722D02*
X14503158Y-16095674D01*
X14503158Y-16095674D02*
X14522205Y-16086150D01*
X14522205Y-16086150D02*
X14550777Y-16086150D01*
X14550777Y-16086150D02*
X14569824Y-16095674D01*
X14569824Y-16095674D02*
X14579348Y-16114722D01*
X14579348Y-16114722D02*
X14579348Y-16219484D01*
X14674586Y-16219484D02*
X14674586Y-16086150D01*
X14674586Y-16105198D02*
X14684110Y-16095674D01*
X14684110Y-16095674D02*
X14703158Y-16086150D01*
X14703158Y-16086150D02*
X14731729Y-16086150D01*
X14731729Y-16086150D02*
X14750777Y-16095674D01*
X14750777Y-16095674D02*
X14760301Y-16114722D01*
X14760301Y-16114722D02*
X14760301Y-16219484D01*
X14760301Y-16114722D02*
X14769824Y-16095674D01*
X14769824Y-16095674D02*
X14788872Y-16086150D01*
X14788872Y-16086150D02*
X14817443Y-16086150D01*
X14817443Y-16086150D02*
X14836491Y-16095674D01*
X14836491Y-16095674D02*
X14846015Y-16114722D01*
X14846015Y-16114722D02*
X14846015Y-16219484D01*
X15236491Y-16009960D02*
X15065063Y-16267103D01*
X15493634Y-16019484D02*
X15512682Y-16019484D01*
X15512682Y-16019484D02*
X15531729Y-16029008D01*
X15531729Y-16029008D02*
X15541253Y-16038531D01*
X15541253Y-16038531D02*
X15550777Y-16057579D01*
X15550777Y-16057579D02*
X15560301Y-16095674D01*
X15560301Y-16095674D02*
X15560301Y-16143293D01*
X15560301Y-16143293D02*
X15550777Y-16181388D01*
X15550777Y-16181388D02*
X15541253Y-16200436D01*
X15541253Y-16200436D02*
X15531729Y-16209960D01*
X15531729Y-16209960D02*
X15512682Y-16219484D01*
X15512682Y-16219484D02*
X15493634Y-16219484D01*
X15493634Y-16219484D02*
X15474586Y-16209960D01*
X15474586Y-16209960D02*
X15465063Y-16200436D01*
X15465063Y-16200436D02*
X15455539Y-16181388D01*
X15455539Y-16181388D02*
X15446015Y-16143293D01*
X15446015Y-16143293D02*
X15446015Y-16095674D01*
X15446015Y-16095674D02*
X15455539Y-16057579D01*
X15455539Y-16057579D02*
X15465063Y-16038531D01*
X15465063Y-16038531D02*
X15474586Y-16029008D01*
X15474586Y-16029008D02*
X15493634Y-16019484D01*
X15646015Y-16200436D02*
X15655539Y-16209960D01*
X15655539Y-16209960D02*
X15646015Y-16219484D01*
X15646015Y-16219484D02*
X15636491Y-16209960D01*
X15636491Y-16209960D02*
X15646015Y-16200436D01*
X15646015Y-16200436D02*
X15646015Y-16219484D01*
X15779348Y-16019484D02*
X15798396Y-16019484D01*
X15798396Y-16019484D02*
X15817444Y-16029008D01*
X15817444Y-16029008D02*
X15826967Y-16038531D01*
X15826967Y-16038531D02*
X15836491Y-16057579D01*
X15836491Y-16057579D02*
X15846015Y-16095674D01*
X15846015Y-16095674D02*
X15846015Y-16143293D01*
X15846015Y-16143293D02*
X15836491Y-16181388D01*
X15836491Y-16181388D02*
X15826967Y-16200436D01*
X15826967Y-16200436D02*
X15817444Y-16209960D01*
X15817444Y-16209960D02*
X15798396Y-16219484D01*
X15798396Y-16219484D02*
X15779348Y-16219484D01*
X15779348Y-16219484D02*
X15760301Y-16209960D01*
X15760301Y-16209960D02*
X15750777Y-16200436D01*
X15750777Y-16200436D02*
X15741253Y-16181388D01*
X15741253Y-16181388D02*
X15731729Y-16143293D01*
X15731729Y-16143293D02*
X15731729Y-16095674D01*
X15731729Y-16095674D02*
X15741253Y-16057579D01*
X15741253Y-16057579D02*
X15750777Y-16038531D01*
X15750777Y-16038531D02*
X15760301Y-16029008D01*
X15760301Y-16029008D02*
X15779348Y-16019484D01*
X15912682Y-16019484D02*
X16036491Y-16019484D01*
X16036491Y-16019484D02*
X15969825Y-16095674D01*
X15969825Y-16095674D02*
X15998396Y-16095674D01*
X15998396Y-16095674D02*
X16017444Y-16105198D01*
X16017444Y-16105198D02*
X16026967Y-16114722D01*
X16026967Y-16114722D02*
X16036491Y-16133769D01*
X16036491Y-16133769D02*
X16036491Y-16181388D01*
X16036491Y-16181388D02*
X16026967Y-16200436D01*
X16026967Y-16200436D02*
X16017444Y-16209960D01*
X16017444Y-16209960D02*
X15998396Y-16219484D01*
X15998396Y-16219484D02*
X15941253Y-16219484D01*
X15941253Y-16219484D02*
X15922206Y-16209960D01*
X15922206Y-16209960D02*
X15912682Y-16200436D01*
X16131729Y-16219484D02*
X16169825Y-16219484D01*
X16169825Y-16219484D02*
X16188872Y-16209960D01*
X16188872Y-16209960D02*
X16198396Y-16200436D01*
X16198396Y-16200436D02*
X16217444Y-16171865D01*
X16217444Y-16171865D02*
X16226967Y-16133769D01*
X16226967Y-16133769D02*
X16226967Y-16057579D01*
X16226967Y-16057579D02*
X16217444Y-16038531D01*
X16217444Y-16038531D02*
X16207920Y-16029008D01*
X16207920Y-16029008D02*
X16188872Y-16019484D01*
X16188872Y-16019484D02*
X16150777Y-16019484D01*
X16150777Y-16019484D02*
X16131729Y-16029008D01*
X16131729Y-16029008D02*
X16122206Y-16038531D01*
X16122206Y-16038531D02*
X16112682Y-16057579D01*
X16112682Y-16057579D02*
X16112682Y-16105198D01*
X16112682Y-16105198D02*
X16122206Y-16124246D01*
X16122206Y-16124246D02*
X16131729Y-16133769D01*
X16131729Y-16133769D02*
X16150777Y-16143293D01*
X16150777Y-16143293D02*
X16188872Y-16143293D01*
X16188872Y-16143293D02*
X16207920Y-16133769D01*
X16207920Y-16133769D02*
X16217444Y-16124246D01*
X16217444Y-16124246D02*
X16226967Y-16105198D01*
X16398396Y-16086150D02*
X16398396Y-16219484D01*
X16350777Y-16009960D02*
X16303158Y-16152817D01*
X16303158Y-16152817D02*
X16426967Y-16152817D01*
X16493634Y-16019484D02*
X16493634Y-16057579D01*
X16569825Y-16019484D02*
X16569825Y-16057579D01*
X16865063Y-16295674D02*
X16855539Y-16286150D01*
X16855539Y-16286150D02*
X16836491Y-16257579D01*
X16836491Y-16257579D02*
X16826968Y-16238531D01*
X16826968Y-16238531D02*
X16817444Y-16209960D01*
X16817444Y-16209960D02*
X16807920Y-16162341D01*
X16807920Y-16162341D02*
X16807920Y-16124246D01*
X16807920Y-16124246D02*
X16817444Y-16076627D01*
X16817444Y-16076627D02*
X16826968Y-16048055D01*
X16826968Y-16048055D02*
X16836491Y-16029008D01*
X16836491Y-16029008D02*
X16855539Y-16000436D01*
X16855539Y-16000436D02*
X16865063Y-15990912D01*
X17036491Y-16019484D02*
X16941253Y-16019484D01*
X16941253Y-16019484D02*
X16931730Y-16114722D01*
X16931730Y-16114722D02*
X16941253Y-16105198D01*
X16941253Y-16105198D02*
X16960301Y-16095674D01*
X16960301Y-16095674D02*
X17007920Y-16095674D01*
X17007920Y-16095674D02*
X17026968Y-16105198D01*
X17026968Y-16105198D02*
X17036491Y-16114722D01*
X17036491Y-16114722D02*
X17046015Y-16133769D01*
X17046015Y-16133769D02*
X17046015Y-16181388D01*
X17046015Y-16181388D02*
X17036491Y-16200436D01*
X17036491Y-16200436D02*
X17026968Y-16209960D01*
X17026968Y-16209960D02*
X17007920Y-16219484D01*
X17007920Y-16219484D02*
X16960301Y-16219484D01*
X16960301Y-16219484D02*
X16941253Y-16209960D01*
X16941253Y-16209960D02*
X16931730Y-16200436D01*
X17284111Y-16219484D02*
X17284111Y-16019484D01*
X17369825Y-16219484D02*
X17369825Y-16114722D01*
X17369825Y-16114722D02*
X17360301Y-16095674D01*
X17360301Y-16095674D02*
X17341253Y-16086150D01*
X17341253Y-16086150D02*
X17312682Y-16086150D01*
X17312682Y-16086150D02*
X17293634Y-16095674D01*
X17293634Y-16095674D02*
X17284111Y-16105198D01*
X17493634Y-16219484D02*
X17474587Y-16209960D01*
X17474587Y-16209960D02*
X17465063Y-16200436D01*
X17465063Y-16200436D02*
X17455539Y-16181388D01*
X17455539Y-16181388D02*
X17455539Y-16124246D01*
X17455539Y-16124246D02*
X17465063Y-16105198D01*
X17465063Y-16105198D02*
X17474587Y-16095674D01*
X17474587Y-16095674D02*
X17493634Y-16086150D01*
X17493634Y-16086150D02*
X17522206Y-16086150D01*
X17522206Y-16086150D02*
X17541253Y-16095674D01*
X17541253Y-16095674D02*
X17550777Y-16105198D01*
X17550777Y-16105198D02*
X17560301Y-16124246D01*
X17560301Y-16124246D02*
X17560301Y-16181388D01*
X17560301Y-16181388D02*
X17550777Y-16200436D01*
X17550777Y-16200436D02*
X17541253Y-16209960D01*
X17541253Y-16209960D02*
X17522206Y-16219484D01*
X17522206Y-16219484D02*
X17493634Y-16219484D01*
X17674587Y-16219484D02*
X17655539Y-16209960D01*
X17655539Y-16209960D02*
X17646015Y-16190912D01*
X17646015Y-16190912D02*
X17646015Y-16019484D01*
X17826968Y-16209960D02*
X17807920Y-16219484D01*
X17807920Y-16219484D02*
X17769825Y-16219484D01*
X17769825Y-16219484D02*
X17750777Y-16209960D01*
X17750777Y-16209960D02*
X17741253Y-16190912D01*
X17741253Y-16190912D02*
X17741253Y-16114722D01*
X17741253Y-16114722D02*
X17750777Y-16095674D01*
X17750777Y-16095674D02*
X17769825Y-16086150D01*
X17769825Y-16086150D02*
X17807920Y-16086150D01*
X17807920Y-16086150D02*
X17826968Y-16095674D01*
X17826968Y-16095674D02*
X17836492Y-16114722D01*
X17836492Y-16114722D02*
X17836492Y-16133769D01*
X17836492Y-16133769D02*
X17741253Y-16152817D01*
X17912682Y-16209960D02*
X17931730Y-16219484D01*
X17931730Y-16219484D02*
X17969825Y-16219484D01*
X17969825Y-16219484D02*
X17988873Y-16209960D01*
X17988873Y-16209960D02*
X17998396Y-16190912D01*
X17998396Y-16190912D02*
X17998396Y-16181388D01*
X17998396Y-16181388D02*
X17988873Y-16162341D01*
X17988873Y-16162341D02*
X17969825Y-16152817D01*
X17969825Y-16152817D02*
X17941253Y-16152817D01*
X17941253Y-16152817D02*
X17922206Y-16143293D01*
X17922206Y-16143293D02*
X17912682Y-16124246D01*
X17912682Y-16124246D02*
X17912682Y-16114722D01*
X17912682Y-16114722D02*
X17922206Y-16095674D01*
X17922206Y-16095674D02*
X17941253Y-16086150D01*
X17941253Y-16086150D02*
X17969825Y-16086150D01*
X17969825Y-16086150D02*
X17988873Y-16095674D01*
X18065063Y-16295674D02*
X18074587Y-16286150D01*
X18074587Y-16286150D02*
X18093634Y-16257579D01*
X18093634Y-16257579D02*
X18103158Y-16238531D01*
X18103158Y-16238531D02*
X18112682Y-16209960D01*
X18112682Y-16209960D02*
X18122206Y-16162341D01*
X18122206Y-16162341D02*
X18122206Y-16124246D01*
X18122206Y-16124246D02*
X18112682Y-16076627D01*
X18112682Y-16076627D02*
X18103158Y-16048055D01*
X18103158Y-16048055D02*
X18093634Y-16029008D01*
X18093634Y-16029008D02*
X18074587Y-16000436D01*
X18074587Y-16000436D02*
X18065063Y-15990912D01*
D12*
X13268033Y-16445033D02*
X13268033Y-16338966D01*
X13161966Y-16338966D01*
X13161966Y-16445033D01*
X13268033Y-16445033D01*
D10*
X13655539Y-16483484D02*
X13541253Y-16483484D01*
X13598396Y-16483484D02*
X13598396Y-16283484D01*
X13598396Y-16283484D02*
X13579348Y-16312055D01*
X13579348Y-16312055D02*
X13560301Y-16331103D01*
X13560301Y-16331103D02*
X13541253Y-16340627D01*
X13741253Y-16464436D02*
X13750777Y-16473960D01*
X13750777Y-16473960D02*
X13741253Y-16483484D01*
X13741253Y-16483484D02*
X13731729Y-16473960D01*
X13731729Y-16473960D02*
X13741253Y-16464436D01*
X13741253Y-16464436D02*
X13741253Y-16483484D01*
X13931729Y-16283484D02*
X13836491Y-16283484D01*
X13836491Y-16283484D02*
X13826967Y-16378722D01*
X13826967Y-16378722D02*
X13836491Y-16369198D01*
X13836491Y-16369198D02*
X13855539Y-16359674D01*
X13855539Y-16359674D02*
X13903158Y-16359674D01*
X13903158Y-16359674D02*
X13922205Y-16369198D01*
X13922205Y-16369198D02*
X13931729Y-16378722D01*
X13931729Y-16378722D02*
X13941253Y-16397769D01*
X13941253Y-16397769D02*
X13941253Y-16445388D01*
X13941253Y-16445388D02*
X13931729Y-16464436D01*
X13931729Y-16464436D02*
X13922205Y-16473960D01*
X13922205Y-16473960D02*
X13903158Y-16483484D01*
X13903158Y-16483484D02*
X13855539Y-16483484D01*
X13855539Y-16483484D02*
X13836491Y-16473960D01*
X13836491Y-16473960D02*
X13826967Y-16464436D01*
X14065062Y-16283484D02*
X14084110Y-16283484D01*
X14084110Y-16283484D02*
X14103158Y-16293008D01*
X14103158Y-16293008D02*
X14112682Y-16302531D01*
X14112682Y-16302531D02*
X14122205Y-16321579D01*
X14122205Y-16321579D02*
X14131729Y-16359674D01*
X14131729Y-16359674D02*
X14131729Y-16407293D01*
X14131729Y-16407293D02*
X14122205Y-16445388D01*
X14122205Y-16445388D02*
X14112682Y-16464436D01*
X14112682Y-16464436D02*
X14103158Y-16473960D01*
X14103158Y-16473960D02*
X14084110Y-16483484D01*
X14084110Y-16483484D02*
X14065062Y-16483484D01*
X14065062Y-16483484D02*
X14046015Y-16473960D01*
X14046015Y-16473960D02*
X14036491Y-16464436D01*
X14036491Y-16464436D02*
X14026967Y-16445388D01*
X14026967Y-16445388D02*
X14017443Y-16407293D01*
X14017443Y-16407293D02*
X14017443Y-16359674D01*
X14017443Y-16359674D02*
X14026967Y-16321579D01*
X14026967Y-16321579D02*
X14036491Y-16302531D01*
X14036491Y-16302531D02*
X14046015Y-16293008D01*
X14046015Y-16293008D02*
X14065062Y-16283484D01*
X14255539Y-16283484D02*
X14274586Y-16283484D01*
X14274586Y-16283484D02*
X14293634Y-16293008D01*
X14293634Y-16293008D02*
X14303158Y-16302531D01*
X14303158Y-16302531D02*
X14312682Y-16321579D01*
X14312682Y-16321579D02*
X14322205Y-16359674D01*
X14322205Y-16359674D02*
X14322205Y-16407293D01*
X14322205Y-16407293D02*
X14312682Y-16445388D01*
X14312682Y-16445388D02*
X14303158Y-16464436D01*
X14303158Y-16464436D02*
X14293634Y-16473960D01*
X14293634Y-16473960D02*
X14274586Y-16483484D01*
X14274586Y-16483484D02*
X14255539Y-16483484D01*
X14255539Y-16483484D02*
X14236491Y-16473960D01*
X14236491Y-16473960D02*
X14226967Y-16464436D01*
X14226967Y-16464436D02*
X14217443Y-16445388D01*
X14217443Y-16445388D02*
X14207920Y-16407293D01*
X14207920Y-16407293D02*
X14207920Y-16359674D01*
X14207920Y-16359674D02*
X14217443Y-16321579D01*
X14217443Y-16321579D02*
X14226967Y-16302531D01*
X14226967Y-16302531D02*
X14236491Y-16293008D01*
X14236491Y-16293008D02*
X14255539Y-16283484D01*
X14407920Y-16483484D02*
X14407920Y-16350150D01*
X14407920Y-16369198D02*
X14417443Y-16359674D01*
X14417443Y-16359674D02*
X14436491Y-16350150D01*
X14436491Y-16350150D02*
X14465063Y-16350150D01*
X14465063Y-16350150D02*
X14484110Y-16359674D01*
X14484110Y-16359674D02*
X14493634Y-16378722D01*
X14493634Y-16378722D02*
X14493634Y-16483484D01*
X14493634Y-16378722D02*
X14503158Y-16359674D01*
X14503158Y-16359674D02*
X14522205Y-16350150D01*
X14522205Y-16350150D02*
X14550777Y-16350150D01*
X14550777Y-16350150D02*
X14569824Y-16359674D01*
X14569824Y-16359674D02*
X14579348Y-16378722D01*
X14579348Y-16378722D02*
X14579348Y-16483484D01*
X14674586Y-16483484D02*
X14674586Y-16350150D01*
X14674586Y-16369198D02*
X14684110Y-16359674D01*
X14684110Y-16359674D02*
X14703158Y-16350150D01*
X14703158Y-16350150D02*
X14731729Y-16350150D01*
X14731729Y-16350150D02*
X14750777Y-16359674D01*
X14750777Y-16359674D02*
X14760301Y-16378722D01*
X14760301Y-16378722D02*
X14760301Y-16483484D01*
X14760301Y-16378722D02*
X14769824Y-16359674D01*
X14769824Y-16359674D02*
X14788872Y-16350150D01*
X14788872Y-16350150D02*
X14817443Y-16350150D01*
X14817443Y-16350150D02*
X14836491Y-16359674D01*
X14836491Y-16359674D02*
X14846015Y-16378722D01*
X14846015Y-16378722D02*
X14846015Y-16483484D01*
X15236491Y-16273960D02*
X15065063Y-16531103D01*
X15493634Y-16283484D02*
X15512682Y-16283484D01*
X15512682Y-16283484D02*
X15531729Y-16293008D01*
X15531729Y-16293008D02*
X15541253Y-16302531D01*
X15541253Y-16302531D02*
X15550777Y-16321579D01*
X15550777Y-16321579D02*
X15560301Y-16359674D01*
X15560301Y-16359674D02*
X15560301Y-16407293D01*
X15560301Y-16407293D02*
X15550777Y-16445388D01*
X15550777Y-16445388D02*
X15541253Y-16464436D01*
X15541253Y-16464436D02*
X15531729Y-16473960D01*
X15531729Y-16473960D02*
X15512682Y-16483484D01*
X15512682Y-16483484D02*
X15493634Y-16483484D01*
X15493634Y-16483484D02*
X15474586Y-16473960D01*
X15474586Y-16473960D02*
X15465063Y-16464436D01*
X15465063Y-16464436D02*
X15455539Y-16445388D01*
X15455539Y-16445388D02*
X15446015Y-16407293D01*
X15446015Y-16407293D02*
X15446015Y-16359674D01*
X15446015Y-16359674D02*
X15455539Y-16321579D01*
X15455539Y-16321579D02*
X15465063Y-16302531D01*
X15465063Y-16302531D02*
X15474586Y-16293008D01*
X15474586Y-16293008D02*
X15493634Y-16283484D01*
X15646015Y-16464436D02*
X15655539Y-16473960D01*
X15655539Y-16473960D02*
X15646015Y-16483484D01*
X15646015Y-16483484D02*
X15636491Y-16473960D01*
X15636491Y-16473960D02*
X15646015Y-16464436D01*
X15646015Y-16464436D02*
X15646015Y-16483484D01*
X15779348Y-16283484D02*
X15798396Y-16283484D01*
X15798396Y-16283484D02*
X15817444Y-16293008D01*
X15817444Y-16293008D02*
X15826967Y-16302531D01*
X15826967Y-16302531D02*
X15836491Y-16321579D01*
X15836491Y-16321579D02*
X15846015Y-16359674D01*
X15846015Y-16359674D02*
X15846015Y-16407293D01*
X15846015Y-16407293D02*
X15836491Y-16445388D01*
X15836491Y-16445388D02*
X15826967Y-16464436D01*
X15826967Y-16464436D02*
X15817444Y-16473960D01*
X15817444Y-16473960D02*
X15798396Y-16483484D01*
X15798396Y-16483484D02*
X15779348Y-16483484D01*
X15779348Y-16483484D02*
X15760301Y-16473960D01*
X15760301Y-16473960D02*
X15750777Y-16464436D01*
X15750777Y-16464436D02*
X15741253Y-16445388D01*
X15741253Y-16445388D02*
X15731729Y-16407293D01*
X15731729Y-16407293D02*
X15731729Y-16359674D01*
X15731729Y-16359674D02*
X15741253Y-16321579D01*
X15741253Y-16321579D02*
X15750777Y-16302531D01*
X15750777Y-16302531D02*
X15760301Y-16293008D01*
X15760301Y-16293008D02*
X15779348Y-16283484D01*
X16026967Y-16283484D02*
X15931729Y-16283484D01*
X15931729Y-16283484D02*
X15922206Y-16378722D01*
X15922206Y-16378722D02*
X15931729Y-16369198D01*
X15931729Y-16369198D02*
X15950777Y-16359674D01*
X15950777Y-16359674D02*
X15998396Y-16359674D01*
X15998396Y-16359674D02*
X16017444Y-16369198D01*
X16017444Y-16369198D02*
X16026967Y-16378722D01*
X16026967Y-16378722D02*
X16036491Y-16397769D01*
X16036491Y-16397769D02*
X16036491Y-16445388D01*
X16036491Y-16445388D02*
X16026967Y-16464436D01*
X16026967Y-16464436D02*
X16017444Y-16473960D01*
X16017444Y-16473960D02*
X15998396Y-16483484D01*
X15998396Y-16483484D02*
X15950777Y-16483484D01*
X15950777Y-16483484D02*
X15931729Y-16473960D01*
X15931729Y-16473960D02*
X15922206Y-16464436D01*
X16131729Y-16483484D02*
X16169825Y-16483484D01*
X16169825Y-16483484D02*
X16188872Y-16473960D01*
X16188872Y-16473960D02*
X16198396Y-16464436D01*
X16198396Y-16464436D02*
X16217444Y-16435865D01*
X16217444Y-16435865D02*
X16226967Y-16397769D01*
X16226967Y-16397769D02*
X16226967Y-16321579D01*
X16226967Y-16321579D02*
X16217444Y-16302531D01*
X16217444Y-16302531D02*
X16207920Y-16293008D01*
X16207920Y-16293008D02*
X16188872Y-16283484D01*
X16188872Y-16283484D02*
X16150777Y-16283484D01*
X16150777Y-16283484D02*
X16131729Y-16293008D01*
X16131729Y-16293008D02*
X16122206Y-16302531D01*
X16122206Y-16302531D02*
X16112682Y-16321579D01*
X16112682Y-16321579D02*
X16112682Y-16369198D01*
X16112682Y-16369198D02*
X16122206Y-16388246D01*
X16122206Y-16388246D02*
X16131729Y-16397769D01*
X16131729Y-16397769D02*
X16150777Y-16407293D01*
X16150777Y-16407293D02*
X16188872Y-16407293D01*
X16188872Y-16407293D02*
X16207920Y-16397769D01*
X16207920Y-16397769D02*
X16217444Y-16388246D01*
X16217444Y-16388246D02*
X16226967Y-16369198D01*
X16417444Y-16483484D02*
X16303158Y-16483484D01*
X16360301Y-16483484D02*
X16360301Y-16283484D01*
X16360301Y-16283484D02*
X16341253Y-16312055D01*
X16341253Y-16312055D02*
X16322206Y-16331103D01*
X16322206Y-16331103D02*
X16303158Y-16340627D01*
X16493634Y-16283484D02*
X16493634Y-16321579D01*
X16569825Y-16283484D02*
X16569825Y-16321579D01*
X16865063Y-16559674D02*
X16855539Y-16550150D01*
X16855539Y-16550150D02*
X16836491Y-16521579D01*
X16836491Y-16521579D02*
X16826968Y-16502531D01*
X16826968Y-16502531D02*
X16817444Y-16473960D01*
X16817444Y-16473960D02*
X16807920Y-16426341D01*
X16807920Y-16426341D02*
X16807920Y-16388246D01*
X16807920Y-16388246D02*
X16817444Y-16340627D01*
X16817444Y-16340627D02*
X16826968Y-16312055D01*
X16826968Y-16312055D02*
X16836491Y-16293008D01*
X16836491Y-16293008D02*
X16855539Y-16264436D01*
X16855539Y-16264436D02*
X16865063Y-16254912D01*
X17046015Y-16483484D02*
X16931730Y-16483484D01*
X16988872Y-16483484D02*
X16988872Y-16283484D01*
X16988872Y-16283484D02*
X16969825Y-16312055D01*
X16969825Y-16312055D02*
X16950777Y-16331103D01*
X16950777Y-16331103D02*
X16931730Y-16340627D01*
X17160301Y-16369198D02*
X17141253Y-16359674D01*
X17141253Y-16359674D02*
X17131730Y-16350150D01*
X17131730Y-16350150D02*
X17122206Y-16331103D01*
X17122206Y-16331103D02*
X17122206Y-16321579D01*
X17122206Y-16321579D02*
X17131730Y-16302531D01*
X17131730Y-16302531D02*
X17141253Y-16293008D01*
X17141253Y-16293008D02*
X17160301Y-16283484D01*
X17160301Y-16283484D02*
X17198396Y-16283484D01*
X17198396Y-16283484D02*
X17217444Y-16293008D01*
X17217444Y-16293008D02*
X17226968Y-16302531D01*
X17226968Y-16302531D02*
X17236491Y-16321579D01*
X17236491Y-16321579D02*
X17236491Y-16331103D01*
X17236491Y-16331103D02*
X17226968Y-16350150D01*
X17226968Y-16350150D02*
X17217444Y-16359674D01*
X17217444Y-16359674D02*
X17198396Y-16369198D01*
X17198396Y-16369198D02*
X17160301Y-16369198D01*
X17160301Y-16369198D02*
X17141253Y-16378722D01*
X17141253Y-16378722D02*
X17131730Y-16388246D01*
X17131730Y-16388246D02*
X17122206Y-16407293D01*
X17122206Y-16407293D02*
X17122206Y-16445388D01*
X17122206Y-16445388D02*
X17131730Y-16464436D01*
X17131730Y-16464436D02*
X17141253Y-16473960D01*
X17141253Y-16473960D02*
X17160301Y-16483484D01*
X17160301Y-16483484D02*
X17198396Y-16483484D01*
X17198396Y-16483484D02*
X17217444Y-16473960D01*
X17217444Y-16473960D02*
X17226968Y-16464436D01*
X17226968Y-16464436D02*
X17236491Y-16445388D01*
X17236491Y-16445388D02*
X17236491Y-16407293D01*
X17236491Y-16407293D02*
X17226968Y-16388246D01*
X17226968Y-16388246D02*
X17217444Y-16378722D01*
X17217444Y-16378722D02*
X17198396Y-16369198D01*
X17474587Y-16483484D02*
X17474587Y-16283484D01*
X17560301Y-16483484D02*
X17560301Y-16378722D01*
X17560301Y-16378722D02*
X17550777Y-16359674D01*
X17550777Y-16359674D02*
X17531730Y-16350150D01*
X17531730Y-16350150D02*
X17503158Y-16350150D01*
X17503158Y-16350150D02*
X17484111Y-16359674D01*
X17484111Y-16359674D02*
X17474587Y-16369198D01*
X17684111Y-16483484D02*
X17665063Y-16473960D01*
X17665063Y-16473960D02*
X17655539Y-16464436D01*
X17655539Y-16464436D02*
X17646015Y-16445388D01*
X17646015Y-16445388D02*
X17646015Y-16388246D01*
X17646015Y-16388246D02*
X17655539Y-16369198D01*
X17655539Y-16369198D02*
X17665063Y-16359674D01*
X17665063Y-16359674D02*
X17684111Y-16350150D01*
X17684111Y-16350150D02*
X17712682Y-16350150D01*
X17712682Y-16350150D02*
X17731730Y-16359674D01*
X17731730Y-16359674D02*
X17741253Y-16369198D01*
X17741253Y-16369198D02*
X17750777Y-16388246D01*
X17750777Y-16388246D02*
X17750777Y-16445388D01*
X17750777Y-16445388D02*
X17741253Y-16464436D01*
X17741253Y-16464436D02*
X17731730Y-16473960D01*
X17731730Y-16473960D02*
X17712682Y-16483484D01*
X17712682Y-16483484D02*
X17684111Y-16483484D01*
X17865063Y-16483484D02*
X17846015Y-16473960D01*
X17846015Y-16473960D02*
X17836492Y-16454912D01*
X17836492Y-16454912D02*
X17836492Y-16283484D01*
X18017444Y-16473960D02*
X17998396Y-16483484D01*
X17998396Y-16483484D02*
X17960301Y-16483484D01*
X17960301Y-16483484D02*
X17941253Y-16473960D01*
X17941253Y-16473960D02*
X17931730Y-16454912D01*
X17931730Y-16454912D02*
X17931730Y-16378722D01*
X17931730Y-16378722D02*
X17941253Y-16359674D01*
X17941253Y-16359674D02*
X17960301Y-16350150D01*
X17960301Y-16350150D02*
X17998396Y-16350150D01*
X17998396Y-16350150D02*
X18017444Y-16359674D01*
X18017444Y-16359674D02*
X18026968Y-16378722D01*
X18026968Y-16378722D02*
X18026968Y-16397769D01*
X18026968Y-16397769D02*
X17931730Y-16416817D01*
X18103158Y-16473960D02*
X18122206Y-16483484D01*
X18122206Y-16483484D02*
X18160301Y-16483484D01*
X18160301Y-16483484D02*
X18179349Y-16473960D01*
X18179349Y-16473960D02*
X18188873Y-16454912D01*
X18188873Y-16454912D02*
X18188873Y-16445388D01*
X18188873Y-16445388D02*
X18179349Y-16426341D01*
X18179349Y-16426341D02*
X18160301Y-16416817D01*
X18160301Y-16416817D02*
X18131730Y-16416817D01*
X18131730Y-16416817D02*
X18112682Y-16407293D01*
X18112682Y-16407293D02*
X18103158Y-16388246D01*
X18103158Y-16388246D02*
X18103158Y-16378722D01*
X18103158Y-16378722D02*
X18112682Y-16359674D01*
X18112682Y-16359674D02*
X18131730Y-16350150D01*
X18131730Y-16350150D02*
X18160301Y-16350150D01*
X18160301Y-16350150D02*
X18179349Y-16359674D01*
X18426968Y-16407293D02*
X18579349Y-16407293D01*
X18503158Y-16483484D02*
X18503158Y-16331103D01*
X18817444Y-16302531D02*
X18826968Y-16293008D01*
X18826968Y-16293008D02*
X18846015Y-16283484D01*
X18846015Y-16283484D02*
X18893635Y-16283484D01*
X18893635Y-16283484D02*
X18912682Y-16293008D01*
X18912682Y-16293008D02*
X18922206Y-16302531D01*
X18922206Y-16302531D02*
X18931730Y-16321579D01*
X18931730Y-16321579D02*
X18931730Y-16340627D01*
X18931730Y-16340627D02*
X18922206Y-16369198D01*
X18922206Y-16369198D02*
X18807920Y-16483484D01*
X18807920Y-16483484D02*
X18931730Y-16483484D01*
X19160301Y-16473960D02*
X19179349Y-16483484D01*
X19179349Y-16483484D02*
X19217444Y-16483484D01*
X19217444Y-16483484D02*
X19236492Y-16473960D01*
X19236492Y-16473960D02*
X19246016Y-16454912D01*
X19246016Y-16454912D02*
X19246016Y-16445388D01*
X19246016Y-16445388D02*
X19236492Y-16426341D01*
X19236492Y-16426341D02*
X19217444Y-16416817D01*
X19217444Y-16416817D02*
X19188873Y-16416817D01*
X19188873Y-16416817D02*
X19169825Y-16407293D01*
X19169825Y-16407293D02*
X19160301Y-16388246D01*
X19160301Y-16388246D02*
X19160301Y-16378722D01*
X19160301Y-16378722D02*
X19169825Y-16359674D01*
X19169825Y-16359674D02*
X19188873Y-16350150D01*
X19188873Y-16350150D02*
X19217444Y-16350150D01*
X19217444Y-16350150D02*
X19236492Y-16359674D01*
X19360301Y-16483484D02*
X19341254Y-16473960D01*
X19341254Y-16473960D02*
X19331730Y-16454912D01*
X19331730Y-16454912D02*
X19331730Y-16283484D01*
X19465063Y-16483484D02*
X19446016Y-16473960D01*
X19446016Y-16473960D02*
X19436492Y-16464436D01*
X19436492Y-16464436D02*
X19426968Y-16445388D01*
X19426968Y-16445388D02*
X19426968Y-16388246D01*
X19426968Y-16388246D02*
X19436492Y-16369198D01*
X19436492Y-16369198D02*
X19446016Y-16359674D01*
X19446016Y-16359674D02*
X19465063Y-16350150D01*
X19465063Y-16350150D02*
X19493635Y-16350150D01*
X19493635Y-16350150D02*
X19512682Y-16359674D01*
X19512682Y-16359674D02*
X19522206Y-16369198D01*
X19522206Y-16369198D02*
X19531730Y-16388246D01*
X19531730Y-16388246D02*
X19531730Y-16445388D01*
X19531730Y-16445388D02*
X19522206Y-16464436D01*
X19522206Y-16464436D02*
X19512682Y-16473960D01*
X19512682Y-16473960D02*
X19493635Y-16483484D01*
X19493635Y-16483484D02*
X19465063Y-16483484D01*
X19588873Y-16350150D02*
X19665063Y-16350150D01*
X19617444Y-16283484D02*
X19617444Y-16454912D01*
X19617444Y-16454912D02*
X19626968Y-16473960D01*
X19626968Y-16473960D02*
X19646016Y-16483484D01*
X19646016Y-16483484D02*
X19665063Y-16483484D01*
X19722206Y-16473960D02*
X19741254Y-16483484D01*
X19741254Y-16483484D02*
X19779349Y-16483484D01*
X19779349Y-16483484D02*
X19798397Y-16473960D01*
X19798397Y-16473960D02*
X19807920Y-16454912D01*
X19807920Y-16454912D02*
X19807920Y-16445388D01*
X19807920Y-16445388D02*
X19798397Y-16426341D01*
X19798397Y-16426341D02*
X19779349Y-16416817D01*
X19779349Y-16416817D02*
X19750777Y-16416817D01*
X19750777Y-16416817D02*
X19731730Y-16407293D01*
X19731730Y-16407293D02*
X19722206Y-16388246D01*
X19722206Y-16388246D02*
X19722206Y-16378722D01*
X19722206Y-16378722D02*
X19731730Y-16359674D01*
X19731730Y-16359674D02*
X19750777Y-16350150D01*
X19750777Y-16350150D02*
X19779349Y-16350150D01*
X19779349Y-16350150D02*
X19798397Y-16359674D01*
X19874587Y-16559674D02*
X19884111Y-16550150D01*
X19884111Y-16550150D02*
X19903158Y-16521579D01*
X19903158Y-16521579D02*
X19912682Y-16502531D01*
X19912682Y-16502531D02*
X19922206Y-16473960D01*
X19922206Y-16473960D02*
X19931730Y-16426341D01*
X19931730Y-16426341D02*
X19931730Y-16388246D01*
X19931730Y-16388246D02*
X19922206Y-16340627D01*
X19922206Y-16340627D02*
X19912682Y-16312055D01*
X19912682Y-16312055D02*
X19903158Y-16293008D01*
X19903158Y-16293008D02*
X19884111Y-16264436D01*
X19884111Y-16264436D02*
X19874587Y-16254912D01*
M02*
